<?xml version="1.0" encoding="utf-8"?>
<!-- Generator: Adobe Illustrator 19.1.0, SVG Export Plug-In . SVG Version: 6.00 Build 0)  -->
<svg version="1.1" id="Capa_1" xmlns="http://www.w3.org/2000/svg" xmlns:xlink="http://www.w3.org/1999/xlink" x="0px" y="0px"
	 viewBox="430 -26.5 1144.3 335" style="enable-background:new 430 -26.5 1144.3 335;" xml:space="preserve">
<style type="text/css">
	.st0{display:none;}
	.st1{display:inline;}
	.st2{fill:none;stroke:#000000;stroke-miterlimit:10;}
	.st3{fill:none;}
	.st4{font-family:'Exo-Light';}
	.st5{font-size:36px;}
	.st6{fill:#68A999;}
	.st7{fill:#1D1D1B;}
</style>
<g>
	<g class="st0">
		<path class="st1" d="M817.3,40.3c0,0,0.4,2.9,1,7.9c0.7,5,1.6,12.1,2.6,20.7c0.5,4.3,1.1,8.9,1.6,13.9c0.6,4.9,1.1,10.1,1.6,15.5
			s1,10.9,1.4,16.6c0.4,5.7,0.7,11.4,1,17.2c0.1,5.8,0.4,11.5,0.3,17.2c0.1,5.7-0.2,11.3-0.3,16.7c-0.2,2.7-0.3,5.3-0.5,7.9
			c-0.1,1.3-0.1,2.6-0.2,3.8c-0.1,1.3-0.2,2.5-0.3,3.7c-0.2,2.5-0.4,4.9-0.6,7.2c-0.3,2.3-0.6,4.5-0.8,6.7
			c-0.5,4.3-1.1,8.2-1.7,11.7c-0.3,1.7-0.5,3.4-0.8,4.9c-0.3,1.5-0.5,2.9-0.8,4.1c-0.9,5-1.5,7.8-1.5,7.8s0.5-2.8,1.4-7.8
			c0.2-1.2,0.5-2.6,0.8-4.1c0.2-1.5,0.5-3.1,0.7-4.9c0.5-3.5,1.2-7.4,1.6-11.7c0.3-2.1,0.5-4.4,0.8-6.7c0.2-2.3,0.4-4.7,0.6-7.2
			c0.1-1.2,0.2-2.5,0.3-3.7c0.1-1.3,0.1-2.6,0.2-3.8c0.1-2.6,0.3-5.2,0.4-7.9c0.1-5.4,0.3-11,0.2-16.6c0-5.7-0.2-11.4-0.4-17.2
			c-0.3-5.8-0.6-11.5-1.1-17.2c-0.4-5.7-1-11.2-1.5-16.6c-0.6-5.4-1.1-10.6-1.7-15.5c-0.6-4.9-1.1-9.6-1.7-13.8
			c-1.1-8.6-2.1-15.7-2.8-20.7c-0.7-5-1.1-7.8-1.1-7.8L817.3,40.3z"/>
	</g>
	<g>
		<path class="st2" d="M805.4,111.4c-8.5-3.3-17.6-5.5-26.7-4.9s-18.2,4.2-24.3,11c-6,6.8-8.4,17.1-4.7,25.5
			c1.8,4.1,4.9,7.4,8.4,10.2c7.9,6.1,18,8.9,27.9,9.2c7.9,0.3,16.1-1,23-5c6.9-4,12.2-11,13.1-18.9c0.8-7.6-2.7-15.2-8.1-20.6
			C808.6,112.4,812.5,114.2,805.4,111.4z"/>
		<path class="st2" d="M811.8,63c9,0.3,18.9-3.1,23.3-11c1.2-2.1,1.9-4.4,2.4-6.8c0.7-3,1-6.1,0.2-9c-2-6.8-9.9-10-17-10.1
			c-9.6-0.1-19.2,4.2-25.6,11.4c-1.5,1.7-2.8,3.6-3.5,5.8c-1.7,5.2,0.7,11.1,4.9,14.6S806.3,62.8,811.8,63z"/>
		<path class="st2" d="M887.3,65.2c-2.7-2.2-5.8-3.8-9-5.3c-3.3-1.6-6.5-3.1-10.1-3.9c-2.3-0.5-4.6-0.7-6.9-0.7
			c-5.4,0.1-10.7,1.5-15.9,3c-4.7,1.4-9.4,3.1-13.1,6.3c-8.1,7-8.7,20.2-2.9,29.1c5.9,8.9,17,13.4,27.6,13.1
			c10.6-0.3,20.8-4.7,29.6-10.7c1.9-1.3,3.9-2.7,5.3-4.6c1.5-2.1,2.3-4.6,2.6-7.1C895.5,77.4,892.7,69.8,887.3,65.2z"/>
		<path class="st2" d="M894.6,149.8c2.1-3.7,3.1-7.9,3.6-12c0.5-4.4,0.4-9-1.4-13c-2.3-5-7-8.5-11.8-11.4c-3.8-2.2-7.9-4.2-12.2-4.8
			c-4.6-0.5-9.2,0.6-13.7,1.7c-2.3,0.6-4.6,1.2-6.9,1.7c-3.1,0.8-6.3,1.6-9.2,2.8c-7,2.9-13.2,9.3-13.2,16.8
			c0,7.1,5.2,13.1,10.7,17.6c7.9,6.6,17.4,12,27.7,12.9C878.3,163.1,889.4,158.8,894.6,149.8z"/>
		<path class="st2" d="M767,94.5c3.3,2.7,7,5,10.9,6.5c7.2,2.8,15.5,3,22.9,0.7c5.7-1.8,11.1-5.2,14.3-10.3c3.2-5.1,3.8-12,0.6-17.1
			c-3.1-4.9-9-7.3-14.6-8.5c-6.9-1.5-14-1.6-21-0.5c-5.5,0.9-11.1,2.8-15.1,6.6c-4,3.9-6.2,10.1-4.1,15.3
			C762.1,90.2,764.5,92.5,767,94.5z"/>
		<path class="st2" d="M856.5,55.4c-24.7,0.9-44.3,36.8-17,50.3c18.2,9,49.8-13.4,56.3,18c1.5,7,0.1,14.4-3,20.8
			c-1.7,3.6-3.9,7-7,9.6c-5.1,4.3-12,6-18.7,5.7c-6.7-0.3-13.2-2.2-19.5-4.4c-5.7-2-11.7-4.5-14.7-9.8c-2.3-4-2.3-9-1.4-13.5
			c1.1-5.8,3.5-11.4,7.7-15.5c9-8.7,20.3-5.7,31-9.4c8.4-2.9,20-8.4,24.7-16.3c4.2-6.9,3.2-16-0.7-23.1
			c-6.6-12.3-21.5-19.4-35.2-17.2c-4.8,0.8-9.5,2.6-12.9,6c-7.2,7.3-6,20.3,0.7,28.2c6.7,7.8,17.5,11.1,27.8,11.6
			c4.7,0.2,10.3-0.8,12-5.1"/>
		<path class="st2" d="M770.8,105.5c-13,2-23.1,15.7-21.2,28.7c1.7,11.4,11,20.5,21.5,25.2c4.6,2.1,9.5,3.5,14.6,3.6
			c11.4,0.1,22.3-7.6,26.6-18.2c4.4-10.5,2.3-23.3-4.5-32.4c-3-4.1-7.1-7.5-11.9-9.2c-3.3-1.1-6.9-1.3-10.5-1.4
			c-7-0.1-14.2,0.5-20.5,3.6c-9.5,4.7-15.5,14.5-19.6,24.3"/>
		<path class="st2" d="M785.2,62c-8.6-1-17.6,3.4-21.8,10.9c-4.2,7.5-3.1,17.7,2.9,23.9c2.1,2.1,4.6,3.8,7.3,5.2
			c8.7,4.7,19,7.2,28.4,4.4c9.4-2.8,17.4-11.8,16.7-21.6c-0.4-5.4-3.3-10.5-7.3-14.1s-9.2-5.9-14.4-7.2c-3.8-1-7.8-1.4-11.7-0.6
			C781.4,63.7,787,58.5,785.2,62z"/>
		<path class="st2" d="M822.4,24.8c-11.6-2.1-24.2,5.7-27.5,17.1c-0.9,3.3-1.2,6.9-0.1,10.2c1.1,3.4,3.6,6.3,6.4,8.6
			c6.7,5.6,16.4,8.2,24.3,4.6c2.6-1.2,4.9-3,6.8-5.2c5.5-6.2,7.5-15.4,4.9-23.3s-10-14-18.2-14.9c-4.2-0.5-9.1,0.8-10.9,4.6"/>
		<path class="st2" d="M822.6,203.3c7-46.3,1-121.8-3.9-132.7"/>
	</g>
</g>
<g>
	<path class="st2" d="M596.4,49.3c-30.5-16.3-169.7,82.3-66.6,138.3S626.9,65.6,596.4,49.3z"/>
	<path class="st2" d="M602.7,65.9c-49-35.1-79.8,8.3-91.8,27.8c-10.3,16.7-23.1,51.9-14.6,70.9s65.6,35.3,91,22
		c30.5-16,24-106,11.5-131s-52.5,14.1-52.5,14.1"/>
</g>
<g>
	<rect x="1036.1" y="62.2" class="st2" width="113.5" height="113.5"/>
	<rect x="1031.1" y="70.5" class="st2" width="113" height="113"/>
</g>
<g>
	<path d="M676.9,112.7h13v-13h1.7v13h13.1v1.7h-13.1v13h-1.7v-13h-13C676.9,114.4,676.9,112.7,676.9,112.7z"/>
</g>
<g>
	<path d="M943.4,112.7h13v-13h1.7v13h13.1v1.7h-13.1v13h-1.7v-13h-13V112.7z"/>
</g>
<rect x="422.9" y="219.7" class="st3" width="262.5" height="85.5"/>
<text transform="matrix(1 0 0 1 494.3204 247.9436)" class="st4 st5">Semilla</text>
<rect x="690.7" y="219.7" class="st3" width="262.5" height="85.5"/>
<text transform="matrix(1 0 0 1 776.7437 247.9436)" class="st4 st5">Árbol</text>
<rect x="959.1" y="219.7" class="st3" width="262.5" height="85.5"/>
<text transform="matrix(1 0 0 1 999.9351 247.9436)" class="st4 st5">Minimalista</text>
<g>
	<g>
		<g>
			<path class="st6" d="M1398.9,260.6c6,0,6-9.3,0-9.3C1392.9,251.4,1392.9,260.6,1398.9,260.6L1398.9,260.6z"/>
		</g>
		<g>
			<path class="st6" d="M1406.7,234.8c-2.2-22.6-1.7-45.5,1.9-68c1.8-11.4,4.6-22.7,8.6-33.5c0.9-2.4,1.9-4.8,3-7.1
				c0.4-0.8,0.7-1.4,1.1-2.3c-0.3,0.6-0.3,0.5,0.2-0.4c1.7-3.2-2.9,4.5-0.6,1.1c3.5-5.2,8-9.8,12.4-14.3c2.6-2.6,4.5-6.3,6.2-9.5
				c0.9-1.6,1.8-3.3,2.4-5c-0.1,0.3,0.8-2.1-0.2-1.2c-21,21.2-34.2,47.8-40.5,76.8c-5.6,25.7-6.4,52.5-3.9,78.6
				c0.1,0.9,0.8-0.1,1.1-0.5c1.2-1.4,2.2-3,3.1-4.6c1.2-2,2.4-4.1,3.5-6.2C1405.5,237.9,1406.8,235.9,1406.7,234.8L1406.7,234.8z"/>
		</g>
		<g>
			<path class="st6" d="M1411.2,154.9c-1.7-20.3-3.3-41,0.4-61.2c0.2-1.2-1.2,0.5-1.1,0.5c-1.2,1.4-2.2,3-3.1,4.6
				c-1.8,3-4.5,6.7-5.1,10.2c-3.7,20.2-2.1,40.9-0.4,61.2c0.1,0.9,0.8-0.1,1.1-0.5c1.2-1.4,2.2-3,3.1-4.6c1.2-2,2.4-4.1,3.5-6.2
				C1410,157.9,1411.3,155.9,1411.2,154.9L1411.2,154.9z"/>
		</g>
		<g>
			<path class="st6" d="M1366.7,108.2c14.4,20.1,33,32.7,50.9,47.4c0.8,0.7-11.1,14.8-12.5,13.7c-18-14.6-37.3-26.5-49.1-48.5
				c-0.8-1.4,5.2-6.6,6-7.5c0.3-0.3,3-5.8,3.9-5.8L1366.7,108.2z"/>
		</g>
		<g>
			<path class="st6" d="M1401.5,165.6c11.6,8.1,25,13.5,39.2,13.8c13.1,0.3,25.8-4.3,36-12.4c5.9-4.6,10.9-10.5,15.2-16.6
				c5.8-8.2,11-17.1,14.9-26.3c5.4-12.7,7.4-26.1,5.6-39.8c-3.4-25.3-20.2-47.6-41.7-60.6c-12.4-7.5-26.7-11.8-41.3-11.7
				c-17.3,0.1-33.8,6.6-49.2,14c-1,0.5-2.1,2.6-2.6,3.4c-1.3,2-2.5,4-3.6,6.1c-0.9,1.6-1.8,3.3-2.4,5c-0.1,0.4-0.7,1.6,0.2,1.2
				c16.6-7.9,34.2-14.3,52.8-13.6c14.9,0.6,29.5,6.4,41.7,14.7c22,14.9,37.5,40.3,37.6,67.3c0,5.3-0.7,10.7-1.9,15.9
				c-0.6,2.6-1.4,5.2-2.4,7.8c-0.4,1.1-0.9,2.2-1.4,3.3c0.3-0.8-0.8,1.6-0.1,0.2c-1.4,2.6,1-1.8-0.6,1c0.9-1.6-0.4,0.5-0.6,0.9
				c-0.8,1.1-1.6,2.1-2.5,3.2c-1.8,2.2-3.8,4.3-6,6.2c-4.2,3.9-9,7-14.1,9.5c-21,10.3-45.2,4.1-63.6-8.6
				C1410.1,149,1400,164.5,1401.5,165.6L1401.5,165.6z"/>
		</g>
	</g>
	<g>
		<path class="st7" d="M1294.1,250.2l3-21.1h0.3l8.6,17.3l8.5-17.3h0.3l3,21.1h-2.1l-2.1-15.1l-7.4,15.1h-0.5l-7.5-15.2l-2.1,15.2
			H1294.1z"/>
		<path class="st7" d="M1321.7,229.1h2.1v21.1h-2.1V229.1z"/>
		<path class="st7" d="M1326.4,246.3l1.8-1.1c1.3,2.3,2.7,3.5,4.4,3.5c0.7,0,1.4-0.2,2-0.5s1.1-0.8,1.4-1.3c0.3-0.6,0.5-1.1,0.5-1.8
			s-0.2-1.4-0.7-2.1c-0.7-0.9-1.9-2.1-3.6-3.4c-1.8-1.3-2.8-2.3-3.3-2.9c-0.7-1-1.1-2.1-1.1-3.2c0-0.9,0.2-1.8,0.7-2.5
			c0.4-0.8,1.1-1.3,1.9-1.8c0.8-0.4,1.7-0.7,2.6-0.7c1,0,1.9,0.2,2.8,0.7c0.9,0.5,1.8,1.4,2.7,2.7l-1.7,1.3c-0.8-1-1.5-1.7-2-2.1
			c-0.6-0.3-1.2-0.5-1.8-0.5c-0.8,0-1.5,0.3-2.1,0.8c-0.5,0.5-0.8,1.1-0.8,1.9c0,0.5,0.1,0.9,0.3,1.3c0.2,0.4,0.5,0.9,1,1.4
			c0.3,0.3,1.2,1,2.7,2.1c1.8,1.3,3.1,2.5,3.8,3.6c0.7,1,1,2.1,1,3.2c0,1.5-0.6,2.9-1.7,4c-1.1,1.1-2.6,1.7-4.2,1.7
			c-1.3,0-2.4-0.3-3.5-1C1328.2,249,1327.3,247.9,1326.4,246.3z"/>
		<path class="st7" d="M1342.9,229.1h2.1v21.1h-2.1V229.1z"/>
		<path class="st7" d="M1359.8,228.6c3.2,0,5.9,1.1,8,3.2s3.2,4.7,3.2,7.9c0,3.1-1.1,5.7-3.2,7.8s-4.8,3.2-7.8,3.2
			c-3.1,0-5.8-1.1-7.9-3.2c-2.1-2.1-3.2-4.7-3.2-7.8c0-2,0.5-3.9,1.5-5.6c1-1.7,2.3-3.1,4-4.1C1356,229.1,1357.9,228.6,1359.8,228.6
			z M1359.9,230.6c-1.6,0-3,0.4-4.4,1.2s-2.5,1.9-3.3,3.3c-0.8,1.4-1.2,2.9-1.2,4.6c0,2.5,0.9,4.6,2.6,6.3s3.8,2.6,6.3,2.6
			c1.6,0,3.1-0.4,4.5-1.2s2.5-1.9,3.3-3.3c0.8-1.4,1.2-2.9,1.2-4.6c0-1.7-0.4-3.2-1.2-4.5c-0.8-1.4-1.9-2.4-3.3-3.2
			C1363,231,1361.5,230.6,1359.9,230.6z M1361,223.1h3.1l-4.2,4.4h-2L1361,223.1z"/>
		<path class="st7" d="M1375.3,250.2v-21.1h0.5l14,16.1v-16.1h2.1v21.1h-0.5l-13.9-15.9v15.9H1375.3z"/>
		<path class="st7" d="M1413.7,229.1l9.8,21.1h-2.3l-3.3-6.9h-9.1l-3.3,6.9h-2.3l9.9-21.1H1413.7z M1413.4,233.6l-3.6,7.6h7.2
			L1413.4,233.6z"/>
		<path class="st7" d="M1425.8,250.2l3-21.1h0.3l8.6,17.3l8.5-17.3h0.3l3,21.1h-2.1l-2.1-15.1l-7.4,15.1h-0.5l-7.5-15.2l-2.1,15.2
			H1425.8z"/>
		<path class="st7" d="M1453.7,229.1h12.1v2.1h-10v6.6h9.9v2.1h-9.9v8.3h9.9v2.1h-12V229.1z M1460.9,223.1h3.1l-4.2,4.4h-2
			L1460.9,223.1z"/>
		<path class="st7" d="M1469.5,229.1h4.2c2.3,0,3.9,0.1,4.8,0.3c1.3,0.3,2.3,0.9,3,1.8c0.8,0.9,1.2,2.1,1.2,3.5c0,1.1-0.3,2.2-0.8,3
			c-0.5,0.9-1.3,1.5-2.3,2c-1,0.4-2.4,0.7-4.2,0.7l7.6,9.8h-2.6l-7.6-9.8h-1.2v9.8h-2.1L1469.5,229.1L1469.5,229.1z M1471.6,231.2
			v7.2h3.6c1.4,0,2.4-0.1,3.1-0.4c0.7-0.3,1.2-0.7,1.6-1.3c0.4-0.6,0.6-1.2,0.6-2c0-0.7-0.2-1.3-0.6-1.9c-0.4-0.6-0.9-1-1.5-1.2
			s-1.7-0.4-3.1-0.4L1471.6,231.2L1471.6,231.2z"/>
		<path class="st7" d="M1486.9,229.1h2.1v21.1h-2.1V229.1z"/>
		<path class="st7" d="M1513.5,233l-1.7,1.3c-0.9-1.2-2-2.1-3.3-2.7c-1.3-0.6-2.7-0.9-4.2-0.9c-1.7,0-3.2,0.4-4.7,1.2
			c-1.4,0.8-2.5,1.9-3.3,3.2c-0.8,1.4-1.2,2.9-1.2,4.6c0,2.6,0.9,4.7,2.6,6.4c1.8,1.7,4,2.6,6.7,2.6c2.9,0,5.4-1.2,7.4-3.5l1.7,1.3
			c-1,1.3-2.4,2.4-3.9,3.1c-1.6,0.7-3.3,1.1-5.3,1.1c-3.7,0-6.6-1.2-8.7-3.7c-1.8-2.1-2.7-4.6-2.7-7.5c0-3.1,1.1-5.7,3.2-7.8
			c2.2-2.1,4.9-3.2,8.1-3.2c2,0,3.7,0.4,5.3,1.2C1511.1,230.5,1512.4,231.6,1513.5,233z"/>
		<path class="st7" d="M1526.3,229.1l9.8,21.1h-2.3l-3.3-6.9h-9.1l-3.3,6.9h-2.3l9.9-21.1H1526.3z M1526,233.6l-3.6,7.6h7.2
			L1526,233.6z"/>
	</g>
	<g>
		<path class="st7" d="M1495.4,257c1.6,0,2.9,0.5,4,1.6s1.6,2.4,1.6,3.9s-0.5,2.8-1.6,3.9c-1.1,1.1-2.4,1.6-3.9,1.6
			c-1.6,0-2.9-0.5-4-1.6s-1.6-2.4-1.6-3.9c0-1,0.2-1.9,0.7-2.8c0.5-0.9,1.2-1.5,2-2C1493.5,257.2,1494.4,257,1495.4,257z
			 M1495.4,258c-0.8,0-1.5,0.2-2.2,0.6c-0.7,0.4-1.2,1-1.6,1.6c-0.4,0.7-0.6,1.5-0.6,2.3c0,1.3,0.4,2.3,1.3,3.2s1.9,1.3,3.1,1.3
			c0.8,0,1.6-0.2,2.3-0.6c0.7-0.4,1.2-0.9,1.6-1.6c0.4-0.7,0.6-1.5,0.6-2.3s-0.2-1.6-0.6-2.3s-0.9-1.2-1.6-1.6
			C1497,258.2,1496.2,258,1495.4,258z"/>
		<path class="st7" d="M1503.1,267.8v-10.5h0.2l7,8.1v-8.1h1v10.5h-0.2l-6.9-8v8H1503.1z"/>
		<path class="st7" d="M1524.1,259l-0.8,0.8c-0.6-0.6-1.2-1-1.9-1.3c-0.7-0.3-1.4-0.4-2-0.4c-0.8,0-1.6,0.2-2.4,0.6
			c-0.7,0.4-1.3,1-1.7,1.6c-0.4,0.7-0.6,1.4-0.6,2.2s0.2,1.5,0.6,2.3c0.4,0.7,1,1.3,1.8,1.7c0.7,0.4,1.6,0.6,2.5,0.6
			c1.1,0,2-0.3,2.7-0.9c0.7-0.6,1.2-1.4,1.3-2.4h-3.4v-1h4.5c0,1.6-0.5,2.9-1.4,3.9c-1,1-2.2,1.4-3.8,1.4c-1.9,0-3.5-0.7-4.6-2
			c-0.9-1-1.3-2.2-1.3-3.5c0-1,0.3-1.9,0.8-2.8c0.5-0.9,1.2-1.5,2.1-2c0.9-0.5,1.9-0.7,3-0.7c0.9,0,1.7,0.2,2.5,0.5
			C1522.6,257.8,1523.3,258.3,1524.1,259z"/>
		<path class="st7" d="M1526.7,267.8v-10.5h2.2c1.6,0,2.7,0.1,3.4,0.4c1,0.4,1.8,1,2.4,1.9c0.6,0.9,0.9,1.9,0.9,3.2
			c0,1.1-0.2,2-0.7,2.8s-1,1.4-1.8,1.8c-0.7,0.4-1.7,0.6-3.1,0.6h-3.3V267.8z M1527.7,266.8h1.2c1.5,0,2.5-0.1,3-0.3
			c0.8-0.3,1.4-0.7,1.9-1.4s0.7-1.5,0.7-2.5s-0.2-1.9-0.7-2.6c-0.5-0.7-1.2-1.2-2.1-1.5c-0.7-0.2-1.7-0.3-3.3-0.3h-0.7L1527.7,266.8
			L1527.7,266.8z"/>
	</g>
	<path class="st6" d="M1376.2,120.8c-1.1-2.8-3.2-4.2-5-6.9c-3.9-5.9-5.4-7.9-7.7-12.7c-1.7-3.6-3.8-7.6-3.9-11.6
		c0-0.7,0-1.5,0.2-2.1c0.1-0.3,0.2-0.7,0.4-1c0.1-0.2,0.8-1.3,0.4-0.7c-2.6,2.9-5.5,5.4-8.6,7.5c0.3-0.2,0.4-0.2,0.1-0.1
		c0.4-0.2,0.9-0.4,1.3-0.5c1.2-0.4,2.5-0.6,3.8-0.8c1-0.1,2.9-1.9,3.6-2.5c1.7-1.3,2.8-2.3,4.4-3.7c1.2-1.1,2.4-2.2,3.4-3.5
		c0.2-0.3,1-1.1,0.2-1c-3,0.4-5.6,1.3-8.1,3c-3.1,2.1-6.1,4.6-8.7,7.3c-1.3,1.3-2.7,2.7-3.7,4.3c-2.1,3.6-0.5,8.3,0.9,11.8
		c2.8,6.6,5.3,10.9,7.1,13.8c2.2,3.5,4.1,6.8,6.9,10c0.4,0.4,6.4-4.4,6.7-4.7c1.5-1.3,2.9-2.6,4.2-3.9
		C1374.3,122.7,1376.4,121.3,1376.2,120.8L1376.2,120.8z"/>
</g>
<g>
	<path d="M1232.1,103.3h30.7v1.7h-30.7V103.3z M1232.1,122h30.7v1.7h-30.7V122z"/>
</g>
</svg>
