<?xml version="1.0" encoding="utf-8"?>
<!-- Generator: Adobe Illustrator 19.1.0, SVG Export Plug-In . SVG Version: 6.00 Build 0)  -->
<svg version="1.1" id="Capa_1" xmlns="http://www.w3.org/2000/svg" xmlns:xlink="http://www.w3.org/1999/xlink" x="0px" y="0px"
	 viewBox="-99 99.4 84 86.1" style="enable-background:new -99 99.4 84 86.1;" xml:space="preserve">
<style type="text/css">
	.st0{fill:#D9393A;}
	.st1{display:none;fill:#D9393A;}
	.st2{fill:#FFFFFF;}
	.st3{display:none;}
	.st4{display:inline;fill:#FFFFFF;}
	.st5{display:none;fill:#FFFFFF;}
</style>
<circle class="st0" cx="-57" cy="142.4" r="19.5"/>
<circle class="st1" cx="-55.4" cy="242.3" r="39"/>
<circle class="st1" cx="29.4" cy="242.3" r="39"/>
<path class="st2" d="M-44.5,138.5c-0.1,0.2-0.1,0.4-0.2,0.6c-0.1,0.2-0.2,0.4-0.5,0.4c-0.5,0.1-1.1,0.1-1.7,0.2
	c-0.1,0-0.2,0.1-0.3,0.1c-0.7,0.3-1.3,0.6-2,0.9c-0.1,0.1-0.2,0.1-0.2,0.2c-0.6,1.1-1.2,2.2-1.8,3.3c-0.1,0.1-0.2,0.3-0.4,0.4
	c-0.3,0.2-0.7,0.5-1,0.8c-0.1,0.1-0.1,0.2-0.1,0.3c-0.1,0.7-0.2,1.4-0.2,2c0,0.2,0,0.4,0.1,0.6c0.2,0.6,0.5,1.2,0.9,1.7
	c0.1,0.2,0.3,0.4,0.5,0.7c0,0.1,0,0.2,0,0.2s-0.1,0.1-0.2,0.2c-0.3,0-0.7,0-1,0c-0.2,0-0.5-0.2-0.5-0.4c-0.3-1-0.7-2-1-3.1
	c-0.1-0.3-0.2-0.5-0.6-0.6c0,0.1,0,0.2,0,0.3c0,0.6,0,1.2,0.1,1.8c0,0.2,0,0.3,0.1,0.4c0.2,0.3,0.5,0.6,0.7,0.9c0,0.1,0.1,0.2,0,0.2
	s-0.2,0.2-0.2,0.2c-0.4,0-0.8,0-1.2,0c-0.1,0-0.2-0.1-0.2-0.2c-0.2-0.3-0.3-0.8-0.3-1.1c-0.2-1.1-0.3-2.2-0.5-3.4
	c0-0.2-0.2-0.4-0.3-0.6c-0.2-0.5-0.7-0.6-1.2-0.5c-1.1,0.1-2.2,0.2-3.3,0.3c-0.1,0-0.2,0.1-0.3,0.2c-0.6,0.4-1.3,0.8-1.4,1.7h0
	c-0.2-0.2-0.3-0.5-0.5-0.8c-0.2,0.2-0.3,0.5-0.5,0.8c-0.1-0.2-0.2-0.4-0.2-0.7c-0.1-0.2-0.3-0.2-0.5-0.2c-0.1,0-0.2,0.1-0.2,0.1
	c-0.2,0.2-0.2,0.4,0,0.6c0.2,0.8,0.5,1.6,0.8,2.3c0,0.2,0.2,0.2,0.2,0.4c0.4,0.2,0.8,0.5,1.2,0.7c-0.1,0.2-0.2,0.3-0.4,0.3
	c-0.4,0-0.8,0-1.2,0c-0.2,0-0.5-0.1-0.6-0.4c-0.5-0.6-0.7-1.3-1-2.1c-0.2-0.6-0.4-1.3-0.7-2c0-0.2-0.2-0.3-0.4-0.2
	c-0.2,0.6-0.2,1.2-0.4,1.7c-0.2,0.7-0.2,1.2,0.3,1.8c0.3,0.4,0.5,0.8,0.8,1.2c-0.2,0.1-0.4,0.1-0.6,0.1c-0.4,0-0.8,0-1.2,0
	c-0.2,0-0.5-0.2-0.5-0.4c-0.1-1.7-0.2-3.2-0.3-4.9c0-0.4,0-0.8,0.2-1.2c0.2-0.9,0.1-1.8-0.1-2.6c-0.1-0.4-0.2-0.8-0.2-1.2h-0.1
	c0.1,0.3,0.1,0.6,0.1,0.8c0.2,0.7,0.1,1.4-0.2,2.1c0,0.2-0.2,0.3-0.3,0.4c-0.1,0.1-0.2,0-0.2-0.1c0-0.2,0-0.4,0-0.7
	c0-0.2,0-0.4,0-0.7c0.1-0.6,0.2-1.1,0.2-1.6c0.1-0.7,0.2-1.4,0.2-2.1c0.1-0.6,0.2-1.2,0.7-1.6c0.4-0.4,0.8-0.6,1.3-0.6
	c2.7,0.1,5.3,0.1,7.9,0.2c0.5,0,0.9-0.1,1.4-0.1c2.3-0.2,4.8-0.5,7.1-0.8c0.1,0,0.2-0.1,0.2-0.1c0-0.2,0.1-0.3,0-0.4
	c-0.2-0.2-0.3-0.4-0.5-0.6c-0.1-0.2-0.1-0.4,0-0.5c0.1-0.1,0.3-0.2,0.5-0.1c0.7,0.6,1.4,0.7,2.2,0.6c0.1,0,0.2,0,0.4,0
	c0.1,0,0.2-0.1,0.3-0.1c0.3-0.2,0.7-0.5,1-0.8c0.2-0.2,0.5-0.1,0.8-0.1c0,0.3,0,0.6-0.4,0.8c-0.3,0.2-0.5,0.4-0.8,0.6
	c0.1,0.1,0.1,0.1,0.2,0.2c0.6,0.7,1.3,1.4,2,2.1c0.2,0.2,0.5,0.6,0.6,0.8C-44.5,138.4-44.5,138.5-44.5,138.5z"/>
<g class="st3">
	<path class="st4" d="M-80.2,232.7c0-0.1,0-0.2,0-0.4c0.4-0.4,0.7-0.9,1.2-1.1c0.9-0.5,1.8-0.9,2.8-1.2c1.5-0.4,2.9-1,4.1-2.1
		c0.6-0.6,1.5-0.6,2.2-0.1c0.4,0.3,0.7,0.6,1,1c0.5,0.7,0.9,1.4,1.4,2.2s1,1.6,1.8,2.3c1,0.9,2,1.8,3.1,2.7c1.9,1.4,3.9,2.6,6.2,3.2
		c1.3,0.4,2.6,0.5,3.9,0.2c1.8-0.5,2.9-1.7,3.9-3.2c1.1-1.6,1.7-3.4,2.4-5.2c0.8-2,2.2-3.2,4.3-3.7c0.4-0.1,0.4-0.2,0.4-0.5
		c-0.1-0.7-0.1-1.5-0.2-2.2c0-0.2,0.1-0.4,0.1-0.6h0.1c0.2,0.3,0.4,0.6,0.6,0.9c0.3,0.4,0.5,0.7,0.8,1.1c0.3,0.3,0.5,0.3,0.7-0.1
		c0.3-0.6,0.5-1.2,0.7-1.8c0.1-0.2,0.2-0.3,0.3-0.5c0.4,0.6,0.3,1.2,0.3,1.7c0,0.3,0.1,0.6,0.1,0.8c0.3-0.1,0.5-0.2,0.8-0.3
		s0.6-0.3,0.9-0.4c0.1,1.1,0,2-0.4,2.8c-0.2,0.5-0.1,0.8,0.2,1.1c0.2,0.2,0.4,0.4,0.6,0.6c0.6,0.5,1.2,1.1,1.5,1.9
		c0,0.2,0,0.3,0,0.4c-0.8-0.3-1.5-0.2-2.3,0.2c-0.5,0.3-1,0.6-1.6,1c0,0.1,0.1,0.3,0.1,0.4c0.4,0.9,0.8,1.8,1.2,2.6
		c0.6,1.2,0.9,2.6,0.8,3.9c-0.2,2.2-0.5,4.3-1.2,6.4c-1.1,3.3-3.1,5.7-6.7,6.4c-1,0.2-1.7,0.8-2.3,1.6s-1.1,1.6-1.7,2.4
		c-0.6,0.9-1.4,1.7-2.4,2.1c-0.8,0.3-1,0.6-0.8,1.4c0.1,0.6,0.2,1.2,0.2,1.8c0.1,0.5,0.3,0.9,0.9,1.1c1.2,0.4,2.3,0.8,3.5,1.2
		c0.2,0.1,0.4,0.1,0.6,0.2c0.4,0.2,0.5,0.6,0.4,1s-0.4,0.7-0.8,0.7c-0.2,0-0.3,0-0.5-0.1c-1.4-0.3-2.7-0.6-4.1-0.9
		c-0.5-0.1-0.9,0-1.3,0.4c-0.3,0.4-0.7,0.9-1.1,1.3c-0.4,0.5-1,0.6-1.4,0.2c-0.4-0.3-0.4-0.8,0-1.4c0.1-0.1,0.1-0.3,0.2-0.4
		c-0.2,0-0.3-0.1-0.5-0.1c-0.8,0.1-1.7,0.2-2.5,0.2c-0.3,0-0.6,0-0.8-0.2c-0.2-0.2-0.4-0.5-0.4-0.8c0-0.4,0.3-0.7,0.7-0.8
		c1-0.2,1.9-0.4,2.9-0.6c0.8-0.2,1.1-0.8,0.8-1.6c-0.4-0.9-0.9-1.8-1.3-2.6c-0.8-1.5-2-2.5-3.6-3c-1.1-0.3-2.3-0.6-3.4-0.9
		c-1.7-0.5-3-1.4-3.7-3c-0.5-1-1-2-1.8-2.7c-0.1-0.1-0.1-0.3-0.2-0.5c0.2-0.1,0.3-0.1,0.5-0.1h0.1c-0.6-0.7-1.2-1.5-1.7-2.2
		c-0.3-0.4-0.4-0.9-0.5-1.3c-0.1-0.2-0.1-0.4-0.2-0.5c-1-0.8-2-1.6-2.9-2.5c-0.6-0.6-1.1-1.2-1.7-1.8c-0.1-0.2-0.2-0.5-0.1-0.7
		c0.1-0.1,0.4-0.2,0.6-0.2c0.5,0,1,0.1,1.5,0.2c0.1,0,0.3-0.1,0.4-0.1c-0.1-0.1-0.2-0.3-0.3-0.3c-0.6-0.3-1.3-0.6-2-1
		c-0.7-0.4-1.4-0.9-2.1-1.4c-0.2-0.1-0.2-0.4-0.3-0.6c0.2-0.1,0.4-0.3,0.7-0.3c0.6,0,1.1,0.1,1.7,0.1c0.2,0,0.3-0.1,0.5-0.1
		c-0.1-0.1-0.2-0.3-0.3-0.3c-1-0.5-2-0.9-3-1.4C-78.7,234.2-79.6,233.7-80.2,232.7z M-39.6,229.6c0-0.4-0.3-0.7-0.7-0.7
		s-0.7,0.3-0.7,0.7s0.3,0.7,0.7,0.7C-39.9,230.3-39.6,229.9-39.6,229.6z"/>
	<path class="st4" d="M-39.6,229.6c0,0.4-0.3,0.7-0.7,0.7s-0.7-0.3-0.7-0.7s0.3-0.7,0.7-0.7C-39.9,228.8-39.6,229.2-39.6,229.6z"/>
</g>
<path class="st5" d="M8,245.2c0-0.3,0-0.5,0-0.8c0-0.1,0.1-0.2,0.1-0.3c0.4-1.3,0.7-2.7,1.2-3.9c1.3-3.2,3.4-5.9,6.4-7.8
	c4.5-2.9,9.3-3.6,14.5-2.8c4.1,0.7,7.8,2.3,10.8,5.2c1.2,1.2,2.3,1.1,3.6,0c2.4-2,4.7-4.1,7.1-6.1c0.3-0.2,0.6-0.4,0.9-0.6
	c0.3-0.2,0.6,0,0.6,0.4c0,0.3,0,0.7-0.1,1c-0.6,2.9-1.3,5.9-1.9,8.8c-0.4,1.7-0.2,3.3,0.5,4.9c1.5,3.2,3,6.4,4.5,9.6
	c0,0.2,0,0.4,0,0.6c-0.2,0.3-0.5,0.4-0.9,0.3c-0.3-0.1-0.5-0.2-0.8-0.3c-3.2-1.4-6.4-2.8-9.6-4.2c-1.5-0.6-2.8-0.4-4,0.6
	c-0.5,0.4-0.9,0.8-1.4,1.2c-2.8,2.2-5.9,3.7-9.3,4.5c-3.6,0.9-7.1,0.9-10.7-0.3c-2.8-0.9-5.2-2.5-7.2-4.5
	C10.6,249.2,8.9,247.5,8,245.2z"/>
</svg>
