<?xml version="1.0" encoding="utf-8"?>
<!-- Generator: Adobe Illustrator 19.1.0, SVG Export Plug-In . SVG Version: 6.00 Build 0)  -->
<svg version="1.1" id="Capa_1" xmlns="http://www.w3.org/2000/svg" xmlns:xlink="http://www.w3.org/1999/xlink" x="0px" y="0px"
	 viewBox="-99 99.4 84 86.1" style="enable-background:new -99 99.4 84 86.1;" xml:space="preserve">
<style type="text/css">
	.st0{display:none;fill:#D9393A;}
	.st1{fill:#D9393A;}
	.st2{display:none;fill:#FFFFFF;}
	.st3{fill:#FFFFFF;}
</style>
<circle class="st0" cx="-156" cy="242.3" r="39"/>
<circle class="st1" cx="-57" cy="142.4" r="19.5"/>
<circle class="st0" cx="29.4" cy="242.3" r="39"/>
<path class="st2" d="M-130.7,233.9c-0.2,0.4-0.3,0.8-0.5,1.3c-0.2,0.4-0.4,0.7-0.9,0.7c-1.1,0.1-2.3,0.2-3.4,0.4
	c-0.2,0-0.5,0.1-0.7,0.2c-1.3,0.6-2.6,1.2-3.9,1.8c-0.2,0.1-0.4,0.3-0.5,0.5c-1.2,2.2-2.4,4.4-3.6,6.6c-0.2,0.3-0.4,0.6-0.7,0.8
	c-0.7,0.5-1.4,1-2,1.5c-0.2,0.1-0.3,0.4-0.3,0.6c-0.2,1.3-0.3,2.7-0.5,4c0,0.4,0,0.8,0.2,1.1c0.5,1.1,1.1,2.3,1.7,3.4
	c0.3,0.5,0.7,0.9,1,1.4c0.1,0.1,0.1,0.4,0.1,0.5s-0.2,0.2-0.4,0.3c-0.6,0-1.3,0-1.9,0c-0.5,0-0.9-0.3-1-0.8c-0.6-2-1.3-4-1.9-6.1
	c-0.2-0.6-0.5-1-1.2-1.2c0,0.2,0,0.5,0,0.7c0.1,1.2,0.1,2.3,0.2,3.5c0,0.3,0.1,0.6,0.3,0.8c0.4,0.6,0.9,1.2,1.3,1.8
	c0.1,0.1,0.2,0.4,0.1,0.5s-0.3,0.3-0.5,0.3c-0.8,0-1.5,0-2.3,0c-0.2,0-0.4-0.2-0.5-0.3c-0.5-0.7-0.6-1.5-0.7-2.3
	c-0.3-2.2-0.6-4.4-0.9-6.7c-0.1-0.5-0.4-0.8-0.6-1.2c-0.5-1-1.3-1.1-2.3-1c-2.2,0.3-4.5,0.5-6.7,0.7c-0.2,0-0.5,0.1-0.7,0.3
	c-1.2,0.9-2.6,1.6-2.8,3.4h-0.1c-0.3-0.5-0.6-1-0.9-1.6c-0.3,0.5-0.6,1-1,1.6c-0.2-0.5-0.4-0.9-0.5-1.4c-0.2-0.5-0.6-0.3-1-0.4
	c-0.1,0-0.3,0.2-0.4,0.3c-0.3,0.4-0.3,0.7-0.1,1.2c0.5,1.6,1,3.1,1.5,4.7c0.1,0.3,0.3,0.5,0.5,0.7c0.8,0.5,1.5,1,2.3,1.4
	c-0.2,0.4-0.4,0.6-0.8,0.6c-0.8,0-1.5,0-2.3,0c-0.5,0-0.9-0.2-1.2-0.7c-1-1.2-1.4-2.7-1.9-4.1c-0.4-1.3-0.9-2.6-1.3-4
	c-0.1-0.4-0.3-0.7-0.9-0.5c-0.3,1.1-0.5,2.3-0.8,3.4c-0.5,1.3-0.3,2.4,0.6,3.5c0.6,0.8,1,1.6,1.6,2.5c-0.4,0.1-0.8,0.2-1.1,0.2
	c-0.8,0-1.6,0-2.4,0c-0.5,0-0.9-0.4-1-0.9c-0.2-3.3-0.5-6.5-0.7-9.8c0-0.8,0.1-1.7,0.3-2.5c0.5-1.8,0.2-3.5-0.2-5.3
	c-0.2-0.8-0.3-1.6-0.5-2.4h-0.1c0.1,0.6,0.1,1.2,0.2,1.7c0.4,1.4,0.1,2.8-0.3,4.1c-0.1,0.3-0.4,0.6-0.7,0.9c-0.2,0.2-0.5,0-0.5-0.3
	c0-0.4-0.1-0.9-0.1-1.3c0-0.5,0-0.9,0-1.4c0.2-1.1,0.3-2.2,0.5-3.3c0.2-1.4,0.3-2.7,0.4-4.1c0.1-1.2,0.4-2.3,1.3-3.2
	c0.8-0.8,1.7-1.3,2.7-1.2c5.3,0.1,10.6,0.3,15.8,0.4c0.9,0,1.8-0.1,2.7-0.2c4.7-0.5,9.5-1,14.2-1.5c0.2,0,0.5-0.1,0.5-0.2
	c0.1-0.3,0.2-0.6-0.1-0.9c-0.4-0.3-0.7-0.7-0.9-1.1c-0.2-0.3-0.3-0.8-0.1-1s0.6-0.3,1-0.1c1.3,1.1,2.8,1.3,4.4,1.2
	c0.2,0,0.5,0,0.7,0s0.5-0.1,0.6-0.2c0.7-0.5,1.4-1,2.1-1.5c0.5-0.4,1-0.3,1.5-0.2c0.1,0.7-0.1,1.3-0.8,1.6c-0.6,0.3-1.1,0.7-1.7,1.1
	c0.2,0.2,0.3,0.3,0.4,0.4c1.3,1.4,2.7,2.8,4,4.2c0.5,0.5,0.9,1.1,1.3,1.6C-130.7,233.7-130.7,233.8-130.7,233.9z"/>
<g>
	<path class="st3" d="M-68.4,135.9c0-0.1,0-0.1,0-0.2c0.2-0.2,0.3-0.4,0.6-0.6c0.4-0.2,0.9-0.4,1.4-0.6c0.8-0.2,1.4-0.5,2-1
		c0.3-0.3,0.8-0.3,1.1-0.1c0.2,0.1,0.3,0.3,0.5,0.5c0.2,0.3,0.5,0.7,0.7,1.1c0.2,0.4,0.5,0.8,0.9,1.2c0.5,0.4,1,0.9,1.5,1.3
		c1,0.7,2,1.3,3.1,1.6c0.6,0.2,1.3,0.2,2,0.1c0.9-0.2,1.5-0.8,2-1.6c0.5-0.8,0.9-1.7,1.2-2.6c0.4-1,1.1-1.6,2.2-1.8
		c0.2-0.1,0.2-0.1,0.2-0.2c0-0.4,0-0.8-0.1-1.1c0-0.1,0-0.2,0-0.3h0c0.1,0.1,0.2,0.3,0.3,0.4c0.1,0.2,0.2,0.3,0.4,0.6
		c0.2,0.1,0.2,0.1,0.4-0.1c0.1-0.3,0.2-0.6,0.4-0.9c0-0.1,0.1-0.1,0.1-0.2c0.2,0.3,0.1,0.6,0.1,0.9c0,0.1,0.1,0.3,0.1,0.4
		c0.1,0,0.2-0.1,0.4-0.1s0.3-0.2,0.5-0.2c0,0.5,0,1-0.2,1.4c-0.1,0.2,0,0.4,0.1,0.6c0.1,0.1,0.2,0.2,0.3,0.3
		c0.3,0.2,0.6,0.5,0.8,0.9c0,0.1,0,0.1,0,0.2c-0.4-0.2-0.8-0.1-1.1,0.1c-0.2,0.2-0.5,0.3-0.8,0.5c0,0.1,0,0.2,0,0.2
		c0.2,0.4,0.4,0.9,0.6,1.3c0.3,0.6,0.4,1.3,0.4,1.9c-0.1,1.1-0.2,2.2-0.6,3.2c-0.5,1.7-1.5,2.9-3.3,3.2c-0.5,0.1-0.8,0.4-1.2,0.8
		c-0.3,0.4-0.5,0.8-0.8,1.2c-0.3,0.4-0.7,0.9-1.2,1.1c-0.4,0.2-0.5,0.3-0.4,0.7c0,0.3,0.1,0.6,0.1,0.9c0,0.2,0.2,0.4,0.5,0.6
		c0.6,0.2,1.1,0.4,1.8,0.6c0.1,0.1,0.2,0.1,0.3,0.1c0.2,0.1,0.2,0.3,0.2,0.5s-0.2,0.3-0.4,0.3c-0.1,0-0.2,0-0.2-0.1
		c-0.7-0.1-1.4-0.3-2.1-0.4c-0.2-0.1-0.4,0-0.6,0.2c-0.1,0.2-0.4,0.4-0.5,0.7c-0.2,0.2-0.5,0.3-0.7,0.1c-0.2-0.1-0.2-0.4,0-0.7
		c0-0.1,0-0.1,0.1-0.2c-0.1,0-0.2-0.1-0.2-0.1c-0.4,0.1-0.9,0.1-1.2,0.1c-0.2,0-0.3,0-0.4-0.1c-0.1-0.1-0.2-0.2-0.2-0.4
		c0-0.2,0.1-0.4,0.4-0.4c0.5-0.1,0.9-0.2,1.4-0.3c0.4-0.1,0.6-0.4,0.4-0.8c-0.2-0.4-0.5-0.9-0.7-1.3c-0.4-0.8-1-1.2-1.8-1.5
		c-0.6-0.1-1.2-0.3-1.7-0.4c-0.8-0.2-1.5-0.7-1.8-1.5c-0.2-0.5-0.5-1-0.9-1.3c0-0.1,0-0.2-0.1-0.2c0.1-0.1,0.2-0.1,0.2-0.1h0.1
		c-0.3-0.4-0.6-0.8-0.8-1.1c-0.2-0.2-0.2-0.4-0.2-0.6c-0.1-0.1-0.1-0.2-0.1-0.2c-0.5-0.4-1-0.8-1.5-1.2c-0.3-0.3-0.5-0.6-0.8-0.9
		c0-0.1-0.1-0.2,0-0.3c0-0.1,0.2-0.1,0.3-0.1c0.2,0,0.5,0.1,0.8,0.1c0.1,0,0.2-0.1,0.2-0.1c-0.1-0.1-0.1-0.2-0.2-0.2
		c-0.3-0.1-0.7-0.3-1-0.5s-0.7-0.4-1.1-0.7c-0.1-0.1-0.1-0.2-0.2-0.3c0.1-0.1,0.2-0.1,0.3-0.1c0.3,0,0.6,0.1,0.8,0.1
		c0.1,0,0.2-0.1,0.2-0.1c0-0.1-0.1-0.2-0.2-0.2c-0.5-0.2-1-0.4-1.5-0.7C-67.7,136.6-68.2,136.4-68.4,135.9z M-48.1,134.3
		c0-0.2-0.1-0.3-0.4-0.3c-0.2,0-0.3,0.1-0.3,0.3c0,0.2,0.2,0.4,0.3,0.4C-48.3,134.7-48.1,134.5-48.1,134.3z"/>
	<path class="st3" d="M-48.1,134.3c0,0.2-0.1,0.4-0.4,0.4c-0.2,0-0.3-0.2-0.3-0.4s0.2-0.3,0.3-0.3C-48.3,134-48.1,134.1-48.1,134.3z
		"/>
</g>
<path class="st2" d="M8,245.2c0-0.3,0-0.5,0-0.8c0-0.1,0.1-0.2,0.1-0.3c0.4-1.3,0.7-2.7,1.2-3.9c1.3-3.2,3.4-5.9,6.4-7.8
	c4.5-2.9,9.3-3.6,14.5-2.8c4.1,0.7,7.8,2.3,10.8,5.2c1.2,1.2,2.3,1.1,3.6,0c2.4-2,4.7-4.1,7.1-6.1c0.3-0.2,0.6-0.4,0.9-0.6
	c0.3-0.2,0.6,0,0.6,0.4c0,0.3,0,0.7-0.1,1c-0.6,2.9-1.3,5.9-1.9,8.8c-0.4,1.7-0.2,3.3,0.5,4.9c1.5,3.2,3,6.4,4.5,9.6
	c0,0.2,0,0.4,0,0.6c-0.2,0.3-0.5,0.4-0.9,0.3c-0.3-0.1-0.5-0.2-0.8-0.3c-3.2-1.4-6.4-2.8-9.6-4.2c-1.5-0.6-2.8-0.4-4,0.6
	c-0.5,0.4-0.9,0.8-1.4,1.2c-2.8,2.2-5.9,3.7-9.3,4.5c-3.6,0.9-7.1,0.9-10.7-0.3c-2.8-0.9-5.2-2.5-7.2-4.5
	C10.6,249.2,8.9,247.5,8,245.2z"/>
</svg>
