<?xml version="1.0" encoding="utf-8"?>
<!-- Generator: Adobe Illustrator 19.1.0, SVG Export Plug-In . SVG Version: 6.00 Build 0)  -->
<svg version="1.1" id="Capa_1" xmlns="http://www.w3.org/2000/svg" xmlns:xlink="http://www.w3.org/1999/xlink" x="0px" y="0px"
	 viewBox="-99 99.4 84 86.1" style="enable-background:new -99 99.4 84 86.1;" xml:space="preserve">
<style type="text/css">
	.st0{display:none;fill:#D9393A;}
	.st1{fill:#D9393A;}
	.st2{display:none;fill:#FFFFFF;}
	.st3{display:none;}
	.st4{display:inline;fill:#FFFFFF;}
	.st5{fill:#FFFFFF;}
</style>
<circle class="st0" cx="-156" cy="242.3" r="39"/>
<circle class="st0" cx="-156.4" cy="242.3" r="39"/>
<circle class="st1" cx="-57" cy="142.4" r="19.5"/>
<path class="st2" d="M-130.7,233.9c-0.2,0.4-0.3,0.8-0.5,1.3c-0.2,0.4-0.4,0.7-0.9,0.7c-1.1,0.1-2.3,0.2-3.4,0.4
	c-0.2,0-0.5,0.1-0.7,0.2c-1.3,0.6-2.6,1.2-3.9,1.8c-0.2,0.1-0.4,0.3-0.5,0.5c-1.2,2.2-2.4,4.4-3.6,6.6c-0.2,0.3-0.4,0.6-0.7,0.8
	c-0.7,0.5-1.4,1-2,1.5c-0.2,0.1-0.3,0.4-0.3,0.6c-0.2,1.3-0.3,2.7-0.5,4c0,0.4,0,0.8,0.2,1.1c0.5,1.1,1.1,2.3,1.7,3.4
	c0.3,0.5,0.7,0.9,1,1.4c0.1,0.1,0.1,0.4,0.1,0.5s-0.2,0.2-0.4,0.3c-0.6,0-1.3,0-1.9,0c-0.5,0-0.9-0.3-1-0.8c-0.6-2-1.3-4-1.9-6.1
	c-0.2-0.6-0.5-1-1.2-1.2c0,0.2,0,0.5,0,0.7c0.1,1.2,0.1,2.3,0.2,3.5c0,0.3,0.1,0.6,0.3,0.8c0.4,0.6,0.9,1.2,1.3,1.8
	c0.1,0.1,0.2,0.4,0.1,0.5s-0.3,0.3-0.5,0.3c-0.8,0-1.5,0-2.3,0c-0.2,0-0.4-0.2-0.5-0.3c-0.5-0.7-0.6-1.5-0.7-2.3
	c-0.3-2.2-0.6-4.4-0.9-6.7c-0.1-0.5-0.4-0.8-0.6-1.2c-0.5-1-1.3-1.1-2.3-1c-2.2,0.3-4.5,0.5-6.7,0.7c-0.2,0-0.5,0.1-0.7,0.3
	c-1.2,0.9-2.6,1.6-2.8,3.4h-0.1c-0.3-0.5-0.6-1-0.9-1.6c-0.3,0.5-0.6,1-1,1.6c-0.2-0.5-0.4-0.9-0.5-1.4c-0.2-0.5-0.6-0.3-1-0.4
	c-0.1,0-0.3,0.2-0.4,0.3c-0.3,0.4-0.3,0.7-0.1,1.2c0.5,1.6,1,3.1,1.5,4.7c0.1,0.3,0.3,0.5,0.5,0.7c0.8,0.5,1.5,1,2.3,1.4
	c-0.2,0.4-0.4,0.6-0.8,0.6c-0.8,0-1.5,0-2.3,0c-0.5,0-0.9-0.2-1.2-0.7c-1-1.2-1.4-2.7-1.9-4.1c-0.4-1.3-0.9-2.6-1.3-4
	c-0.1-0.4-0.3-0.7-0.9-0.5c-0.3,1.1-0.5,2.3-0.8,3.4c-0.5,1.3-0.3,2.4,0.6,3.5c0.6,0.8,1,1.6,1.6,2.5c-0.4,0.1-0.8,0.2-1.1,0.2
	c-0.8,0-1.6,0-2.4,0c-0.5,0-0.9-0.4-1-0.9c-0.2-3.3-0.5-6.5-0.7-9.8c0-0.8,0.1-1.7,0.3-2.5c0.5-1.8,0.2-3.5-0.2-5.3
	c-0.2-0.8-0.3-1.6-0.5-2.4h-0.1c0.1,0.6,0.1,1.2,0.2,1.7c0.4,1.4,0.1,2.8-0.3,4.1c-0.1,0.3-0.4,0.6-0.7,0.9c-0.2,0.2-0.5,0-0.5-0.3
	c0-0.4-0.1-0.9-0.1-1.3c0-0.5,0-0.9,0-1.4c0.2-1.1,0.3-2.2,0.5-3.3c0.2-1.4,0.3-2.7,0.4-4.1c0.1-1.2,0.4-2.3,1.3-3.2
	c0.8-0.8,1.7-1.3,2.7-1.2c5.3,0.1,10.6,0.3,15.8,0.4c0.9,0,1.8-0.1,2.7-0.2c4.7-0.5,9.5-1,14.2-1.5c0.2,0,0.5-0.1,0.5-0.2
	c0.1-0.3,0.2-0.6-0.1-0.9c-0.4-0.3-0.7-0.7-0.9-1.1c-0.2-0.3-0.3-0.8-0.1-1s0.6-0.3,1-0.1c1.3,1.1,2.8,1.3,4.4,1.2
	c0.2,0,0.5,0,0.7,0s0.5-0.1,0.6-0.2c0.7-0.5,1.4-1,2.1-1.5c0.5-0.4,1-0.3,1.5-0.2c0.1,0.7-0.1,1.3-0.8,1.6c-0.6,0.3-1.1,0.7-1.7,1.1
	c0.2,0.2,0.3,0.3,0.4,0.4c1.3,1.4,2.7,2.8,4,4.2c0.5,0.5,0.9,1.1,1.3,1.6C-130.7,233.7-130.7,233.8-130.7,233.9z"/>
<g class="st3">
	<path class="st4" d="M-178.9,228.9c0-0.1,0-0.2,0-0.4c0.4-0.4,0.7-0.9,1.2-1.1c0.9-0.5,1.8-0.9,2.8-1.2c1.5-0.4,2.9-1,4.1-2.1
		c0.6-0.6,1.5-0.6,2.2-0.1c0.4,0.3,0.7,0.6,1,1c0.5,0.7,0.9,1.4,1.4,2.2s1,1.6,1.8,2.3c1,0.9,2,1.8,3.1,2.7c1.9,1.4,3.9,2.6,6.2,3.2
		c1.3,0.4,2.6,0.5,3.9,0.2c1.8-0.5,2.9-1.7,3.9-3.2c1.1-1.6,1.7-3.4,2.4-5.2c0.8-2,2.2-3.2,4.3-3.7c0.4-0.1,0.4-0.2,0.4-0.5
		c-0.1-0.7-0.1-1.5-0.2-2.2c0-0.2,0.1-0.4,0.1-0.6h0.1c0.2,0.3,0.4,0.6,0.6,0.9c0.3,0.4,0.5,0.7,0.8,1.1c0.3,0.3,0.5,0.3,0.7-0.1
		c0.3-0.6,0.5-1.2,0.7-1.8c0.1-0.2,0.2-0.3,0.3-0.5c0.4,0.6,0.3,1.2,0.3,1.7c0,0.3,0.1,0.6,0.1,0.8c0.3-0.1,0.5-0.2,0.8-0.3
		s0.6-0.3,0.9-0.4c0.1,1.1,0,2-0.4,2.8c-0.2,0.5-0.1,0.8,0.2,1.1c0.2,0.2,0.4,0.4,0.6,0.6c0.6,0.5,1.2,1.1,1.5,1.9
		c0,0.2,0,0.3,0,0.4c-0.8-0.3-1.5-0.2-2.3,0.2c-0.5,0.3-1,0.6-1.6,1c0,0.1,0.1,0.3,0.1,0.4c0.4,0.9,0.8,1.8,1.2,2.6
		c0.6,1.2,0.9,2.6,0.8,3.9c-0.2,2.2-0.5,4.3-1.2,6.4c-1.1,3.3-3.1,5.7-6.7,6.4c-1,0.2-1.7,0.8-2.3,1.6s-1.1,1.6-1.7,2.4
		c-0.6,0.9-1.4,1.7-2.4,2.1c-0.8,0.3-1,0.6-0.8,1.4c0.1,0.6,0.2,1.2,0.2,1.8c0.1,0.5,0.3,0.9,0.9,1.1c1.2,0.4,2.3,0.8,3.5,1.2
		c0.2,0.1,0.4,0.1,0.6,0.2c0.4,0.2,0.5,0.6,0.4,1c-0.1,0.4-0.4,0.7-0.8,0.7c-0.2,0-0.3,0-0.5-0.1c-1.4-0.3-2.7-0.6-4.1-0.9
		c-0.5-0.1-0.9,0-1.3,0.4c-0.3,0.4-0.7,0.9-1.1,1.3c-0.4,0.5-1,0.6-1.4,0.2c-0.4-0.3-0.4-0.8,0-1.4c0.1-0.1,0.1-0.3,0.2-0.4
		c-0.2,0-0.3-0.1-0.5-0.1c-0.8,0.1-1.7,0.2-2.5,0.2c-0.3,0-0.6,0-0.8-0.2c-0.2-0.2-0.4-0.5-0.4-0.8c0-0.4,0.3-0.7,0.7-0.8
		c1-0.2,1.9-0.4,2.9-0.6c0.8-0.2,1.1-0.8,0.8-1.6c-0.4-0.9-0.9-1.8-1.3-2.6c-0.8-1.5-2-2.5-3.6-3c-1.1-0.3-2.3-0.6-3.4-0.9
		c-1.7-0.5-3-1.4-3.7-3c-0.5-1-1-2-1.8-2.7c-0.1-0.1-0.1-0.3-0.2-0.5c0.2-0.1,0.3-0.1,0.5-0.1h0.1c-0.6-0.7-1.2-1.5-1.7-2.2
		c-0.3-0.4-0.4-0.9-0.5-1.3c-0.1-0.2-0.1-0.4-0.2-0.5c-1-0.8-2-1.6-2.9-2.5c-0.6-0.6-1.1-1.2-1.7-1.8c-0.1-0.2-0.2-0.5-0.1-0.7
		c0.1-0.1,0.4-0.2,0.6-0.2c0.5,0,1,0.1,1.5,0.2c0.1,0,0.3-0.1,0.4-0.1c-0.1-0.1-0.2-0.3-0.3-0.3c-0.6-0.3-1.3-0.6-2-1
		c-0.7-0.4-1.4-0.9-2.1-1.4c-0.2-0.1-0.2-0.4-0.3-0.6c0.2-0.1,0.4-0.3,0.7-0.3c0.6,0,1.1,0.1,1.7,0.1c0.2,0,0.3-0.1,0.5-0.1
		c-0.1-0.1-0.2-0.3-0.3-0.3c-1-0.5-2-0.9-3-1.4C-177.4,230.3-178.3,229.8-178.9,228.9z M-138.3,225.7c0-0.4-0.3-0.7-0.7-0.7
		s-0.7,0.3-0.7,0.7s0.3,0.7,0.7,0.7S-138.3,226.1-138.3,225.7z"/>
	<path class="st4" d="M-138.3,225.7c0,0.4-0.3,0.7-0.7,0.7s-0.7-0.3-0.7-0.7c0-0.4,0.3-0.7,0.7-0.7
		C-138.6,225-138.2,225.3-138.3,225.7z"/>
</g>
<path class="st5" d="M-69,144c0-0.2,0-0.2,0-0.4c0-0.1,0-0.1,0-0.1c0.2-0.7,0.3-1.4,0.6-1.9c0.7-1.6,1.7-2.9,3.2-3.9
	c2.2-1.4,4.6-1.8,7.2-1.4c2,0.3,3.9,1.1,5.4,2.6c0.6,0.6,1.1,0.6,1.8,0c1.2-1,2.3-2.1,3.5-3.1c0.1-0.1,0.3-0.2,0.5-0.3
	c0.1-0.1,0.3,0,0.3,0.2c0,0.2,0,0.4,0,0.5c-0.3,1.4-0.7,2.9-1,4.4c-0.2,0.8-0.1,1.6,0.2,2.4c0.8,1.6,1.5,3.2,2.2,4.8
	c0,0.1,0,0.2,0,0.3c-0.1,0.1-0.2,0.2-0.5,0.1c-0.2-0.1-0.2-0.1-0.4-0.1c-1.6-0.7-3.2-1.4-4.8-2.1c-0.8-0.3-1.4-0.2-2,0.3
	c-0.2,0.2-0.5,0.4-0.7,0.6c-1.4,1.1-3,1.8-4.6,2.2c-1.8,0.4-3.6,0.4-5.4-0.2c-1.4-0.4-2.6-1.2-3.6-2.2C-67.8,146-68.6,145.1-69,144z
	"/>
</svg>
