<?xml version="1.0" encoding="utf-8"?>
<!-- Generator: Adobe Illustrator 19.1.0, SVG Export Plug-In . SVG Version: 6.00 Build 0)  -->
<svg version="1.1" id="Capa_1" xmlns="http://www.w3.org/2000/svg" xmlns:xlink="http://www.w3.org/1999/xlink" x="0px" y="0px"
	 viewBox="430 -26.5 1144.3 335" style="enable-background:new 430 -26.5 1144.3 335;" xml:space="preserve">
<style type="text/css">
	.st0{fill:none;stroke:#000000;stroke-width:2;stroke-miterlimit:10;}
	.st1{fill:none;}
	.st2{font-family:'Exo-Light';}
	.st3{font-size:36px;}
	.st4{font-family:'Montserrat-Hairline';}
	.st5{font-size:180px;}
	.st6{fill:#FFFFFF;stroke:#E50751;stroke-width:2;stroke-miterlimit:10;}
	.st7{fill:#362744;}
	.st8{font-family:'Montserrat-Light';}
	.st9{font-size:43.5207px;}
	.st10{letter-spacing:3;}
	.st11{font-family:'Montserrat-UltraLight';}
	.st12{font-size:23.989px;}
</style>
<polygon class="st0" points="1043.2,70.1 1156.7,70.1 1156.7,183.6 "/>
<polygon class="st0" points="1094.7,184.8 1014.8,104.9 1174.6,104.9 "/>
<g>
	<path d="M684,100.6h13v-13h1.7v13h13.1v1.7h-13.1v13H697v-13h-13C684,102.3,684,100.6,684,100.6z"/>
</g>
<g>
	<path d="M950.5,100.6h13v-13h1.7v13h13.1v1.7h-13.1v13h-1.7v-13h-13V100.6z"/>
</g>
<rect x="430" y="207.6" class="st1" width="262.5" height="85.5"/>
<text transform="matrix(1 0 0 1 501.4204 235.86)" class="st2 st3">Letra P</text>
<rect x="697.8" y="207.6" class="st1" width="262.5" height="85.5"/>
<text transform="matrix(1 0 0 1 783.8437 235.86)" class="st2 st3">Letra G</text>
<rect x="966.2" y="207.6" class="st1" width="262.5" height="85.5"/>
<text transform="matrix(1 0 0 1 1007.0351 235.86)" class="st2 st3">Geométrico</text>
<g>
	<path d="M1239.2,91.2h30.7v1.7h-30.7V91.2z M1239.2,109.9h30.7v1.7h-30.7V109.9z"/>
</g>
<rect x="512" y="52.4" class="st1" width="123" height="168"/>
<text transform="matrix(1 0 0 1 512 185.9986)" class="st4 st5">P</text>
<rect x="783.8" y="38.7" class="st1" width="155.2" height="154.2"/>
<text transform="matrix(1 0 0 1 783.8437 172.2385)" class="st4 st5">G</text>
<path class="st6" d="M1399,90.5c0-2.8,3.4-4.2,5.4-2.3l16.5,16.1c1.3,1.3,1.3,3.5-0.1,4.7l-20.8,18.1l-47.7-47.8
	c-1.7-1.7-1.7-4.5,0-6.2l46.9-46.9c1.2-1.2,3.1-1.2,4.3,0l65.7,65.6c1.5,1.6,1.5,4.1,0,5.6l-65.9,65.3c-1.8,1.8-4.8,0.5-4.7-2
	L1399,90.5z"/>
<text transform="matrix(1 0 0 1 1293.2284 218.8535)"><tspan x="0" y="0" class="st7 st8 st9 st10">PATRICIA</tspan><tspan x="1.9" y="30.8" class="st7 st11 st12">GUILLIN BARREIRO</tspan></text>
</svg>
