<?xml version="1.0" encoding="utf-8"?>
<!-- Generator: Adobe Illustrator 19.1.0, SVG Export Plug-In . SVG Version: 6.00 Build 0)  -->
<svg version="1.1" id="Capa_1" xmlns="http://www.w3.org/2000/svg" xmlns:xlink="http://www.w3.org/1999/xlink" x="0px" y="0px"
	 viewBox="430 -26.5 1144.3 335" style="enable-background:new 430 -26.5 1144.3 335;" xml:space="preserve">
<style type="text/css">
	.st0{fill:none;stroke:#000000;stroke-width:2;stroke-miterlimit:10;}
	.st1{fill:none;}
	.st2{enable-background:new    ;}
	.st3{fill:#FFFFFF;stroke:#E50751;stroke-width:2;stroke-miterlimit:10;}
	.st4{fill:#362744;}
</style>
<polygon class="st0" points="1043.2,43.6 1156.7,43.6 1156.7,157.1 "/>
<polygon class="st0" points="1094.7,158.3 1014.8,78.4 1174.6,78.4 "/>
<g>
	<path d="M684,74.1h13v-13h1.7v13h13.1v1.7h-13.1v13H697v-13h-13C684,75.8,684,74.1,684,74.1z"/>
</g>
<g>
	<path d="M950.5,74.1h13v-13h1.7v13h13.1v1.7h-13.1v13h-1.7v-13h-13V74.1z"/>
</g>
<rect x="430" y="181.1" class="st1" width="262.5" height="85.5"/>
<g class="st2">
	<path d="M504.6,183h2.1v21.8c0,2.4,1.5,2.5,2.8,2.5h10.6v2.1h-10.6c-2.4,0-4.9-0.5-4.9-4.5V183z"/>
	<path d="M530,190.1c4.5,0,7.3,0.4,7.3,6.8c0,2.8-1.6,4.1-4.9,4.1h-8.3c0,5.4,1.3,6.5,4.2,6.5c3.3,0,5.9-0.1,8.6-0.5v1.5
		c-2.9,0.8-5.6,1-8.6,1c-4.9,0-6.3-2.5-6.3-9.8C522.1,191.2,524.3,190.1,530,190.1z M532.4,198.9c1.7,0,2.9-0.4,2.9-2.1
		c0-4.3-1.2-4.7-5.2-4.7c-4.4,0-6,0.4-6,6.8H532.4z"/>
	<path d="M539.7,190.7l3.4-0.5l0.5-5.3h1.5v5.3h5.8v2.1h-5.8v10.3c0,4,1.3,4.5,2.5,4.8c0,0,2.8,0.6,3,0.6v1.4h-2.9
		c-2.9,0-4.6-1.8-4.6-6.8v-10.3h-3.4V190.7z"/>
	<path d="M554.6,190.2h1.4l0.7,2.4c2.2-1.3,4.3-2.6,7.4-2.6c1,0,2.1,0.1,2.7,0.3v2c-0.6-0.1-1.6-0.2-2.7-0.2c-3,0-4.6,0.9-7.4,2.2
		v15h-2.1V190.2z"/>
	<path d="M569.1,202.6c0-2.9,1.8-4.8,4.8-4.8c0,0,8.2,0,8.2,0c0,0,0-2.4,0-2.4c0-2.3-1.1-3.6-3.5-3.6c-2.6,0-5.5,0.2-8.9,0.6v-1.5
		c2.4-0.6,5.4-1.1,9-1.1c3,0,5.5,1.6,5.5,5.5v13.9h-1.5l-0.6-2.3c-0.1,0-4.9,2.5-8.2,2.5c-2.6,0-4.8-1.7-4.8-4.8V202.6z
		 M573.9,207.5c2.9,0,8.2-1.9,8.2-1.9v-6.2l-8.2,0.5c-2,0.1-2.7,1.4-2.7,2.9v1.9C571.1,206.8,572.5,207.5,573.9,207.5z"/>
	<path d="M597.9,183h10.5c2.8,0,6.3,1,6.3,7.5c0,7.5-3.6,7.8-6.3,7.8c-1.4,0-8.3-0.5-8.5-0.6v11.6h-2.1V183z M608.5,196.2
		c2.2,0,4.2-0.7,4.2-5.8c0-5-2.5-5.4-4.2-5.4H600v11.2H608.5z"/>
</g>
<rect x="697.8" y="181.1" class="st1" width="262.5" height="85.5"/>
<g class="st2">
	<path d="M787.1,183h2.1v21.8c0,2.4,1.5,2.5,2.8,2.5h10.6v2.1H792c-2.4,0-4.9-0.5-4.9-4.5V183z"/>
	<path d="M812.5,190.1c4.5,0,7.3,0.4,7.3,6.8c0,2.8-1.6,4.1-4.9,4.1h-8.3c0,5.4,1.3,6.5,4.2,6.5c3.3,0,5.9-0.1,8.6-0.5v1.5
		c-2.9,0.8-5.6,1-8.6,1c-4.9,0-6.3-2.5-6.3-9.8C804.5,191.2,806.8,190.1,812.5,190.1z M814.8,198.9c1.7,0,2.9-0.4,2.9-2.1
		c0-4.3-1.2-4.7-5.2-4.7c-4.4,0-6,0.4-6,6.8H814.8z"/>
	<path d="M822.2,190.7l3.4-0.5l0.5-5.3h1.5v5.3h5.8v2.1h-5.8v10.3c0,4,1.3,4.5,2.5,4.8c0,0,2.8,0.6,3,0.6v1.4h-2.9
		c-2.9,0-4.6-1.8-4.6-6.8v-10.3h-3.4V190.7z"/>
	<path d="M837,190.2h1.4l0.7,2.4c2.2-1.3,4.3-2.6,7.4-2.6c1,0,2.1,0.1,2.7,0.3v2c-0.6-0.1-1.6-0.2-2.7-0.2c-3,0-4.6,0.9-7.4,2.2v15
		H837V190.2z"/>
	<path d="M851.5,202.6c0-2.9,1.8-4.8,4.8-4.8c0,0,8.2,0,8.2,0c0,0,0-2.4,0-2.4c0-2.3-1.1-3.6-3.5-3.6c-2.6,0-5.5,0.2-8.9,0.6v-1.5
		c2.4-0.6,5.4-1.1,9-1.1c3,0,5.5,1.6,5.5,5.5v13.9h-1.5l-0.6-2.3c-0.1,0-4.9,2.5-8.2,2.5c-2.6,0-4.8-1.7-4.8-4.8V202.6z
		 M856.3,207.5c2.9,0,8.2-1.9,8.2-1.9v-6.2l-8.2,0.5c-2,0.1-2.7,1.4-2.7,2.9v1.9C853.6,206.8,854.9,207.5,856.3,207.5z"/>
	<path d="M888.4,182.7c1.9,0,6.6,0.5,9.1,1v1.6c-0.2,0-5.6-0.6-9.1-0.6c-5.2,0-6.2,3.9-6.2,11.3c0,8.3,1.5,11.4,6.3,11.4
		c2.8,0,7.5-1.7,7.5-1.7v-8.4h-6.6V196c1.4-0.4,3.3-0.7,6.2-0.7c0.8,0,1.6,0,2.4,0.1v13.9h-1.5l-0.5-1.8c-1.3,0.7-4.3,2-7.5,2
		c-7.5,0.1-8.4-5.9-8.4-13.5C880.2,188.8,881.2,182.7,888.4,182.7z"/>
</g>
<rect x="966.2" y="181.1" class="st1" width="262.5" height="85.5"/>
<g class="st2">
	<path d="M1017.5,182.7c1.9,0,6.6,0.5,9.1,1v1.6c-0.2,0-5.6-0.6-9.1-0.6c-5.2,0-6.2,3.9-6.2,11.3c0,8.3,1.5,11.4,6.3,11.4
		c2.8,0,7.5-1.7,7.5-1.7v-8.4h-6.6V196c1.4-0.4,3.3-0.7,6.2-0.7c0.8,0,1.6,0,2.4,0.1v13.9h-1.5l-0.5-1.8c-1.3,0.7-4.3,2-7.5,2
		c-7.5,0.1-8.4-5.9-8.4-13.5C1009.2,188.8,1010.3,182.7,1017.5,182.7z"/>
	<path d="M1039.2,190.1c4.5,0,7.3,0.4,7.3,6.8c0,2.8-1.6,4.1-4.9,4.1h-8.3c0,5.4,1.3,6.5,4.2,6.5c3.3,0,5.9-0.1,8.6-0.5v1.5
		c-2.9,0.8-5.6,1-8.6,1c-4.9,0-6.3-2.5-6.3-9.8C1031.2,191.2,1033.5,190.1,1039.2,190.1z M1041.6,198.9c1.7,0,2.9-0.4,2.9-2.1
		c0-4.3-1.2-4.7-5.2-4.7c-4.4,0-6,0.4-6,6.8H1041.6z"/>
	<path d="M1058.4,190c6.4,0,8.3,2.7,8.3,10c0,7.1-1.9,9.5-8.3,9.5c-6.4,0-8.2-2.6-8.2-9.5C1050.1,192.2,1052.3,190,1058.4,190z
		 M1058.4,207.4c4.1,0,6.2-0.8,6.2-7.4c0-7.2-1.9-8-6.2-8c-4.1,0-6.2,0.6-6.2,8C1052.2,206.8,1054.4,207.4,1058.4,207.4z"/>
	<path d="M1071,190.2h1.4l0.6,2.3c2.2-1.3,4.3-2.5,7.1-2.5c2.4,0,4.4,1.1,5.2,2.9c1.9-1.5,4.9-2.9,8-2.9c3.5,0,5.9,2.6,5.9,6.1v13.2
		h-2.1v-13.2c0-2.4-1.5-4.1-3.9-4.1c-2.9,0-5,0.7-7.5,2.2c0.1,0.3,0.2,1.5,0.2,1.9v13.3h-2.1v-13.2c0-2.4-1.6-4.1-3.9-4.1
		c-2.9,0-4.4,0.7-7.1,2.1v15.2h-2.1V190.2z"/>
	<path d="M1111,190.1c4.5,0,7.3,0.4,7.3,6.8c0,2.8-1.6,4.1-4.9,4.1h-8.3c0,5.4,1.3,6.5,4.2,6.5c3.3,0,5.9-0.1,8.6-0.5v1.5
		c-2.9,0.8-5.6,1-8.6,1c-4.9,0-6.3-2.5-6.3-9.8C1103,191.2,1105.3,190.1,1111,190.1z M1113.3,198.9c1.7,0,2.9-0.4,2.9-2.1
		c0-4.3-1.2-4.7-5.2-4.7c-4.4,0-6,0.4-6,6.8H1113.3z M1114,183.1h2.6l-4.8,4.8h-1.8L1114,183.1z"/>
	<path d="M1120.7,190.7l3.4-0.5l0.5-5.3h1.5v5.3h5.8v2.1h-5.8v10.3c0,4,1.3,4.5,2.5,4.8c0,0,2.8,0.6,3,0.6v1.4h-2.9
		c-2.9,0-4.6-1.8-4.6-6.8v-10.3h-3.4V190.7z"/>
	<path d="M1135.5,190.2h1.4l0.7,2.4c2.2-1.3,4.3-2.6,7.4-2.6c1,0,2.1,0.1,2.7,0.3v2c-0.6-0.1-1.6-0.2-2.7-0.2c-3,0-4.6,0.9-7.4,2.2
		v15h-2.1V190.2z"/>
	<path d="M1150.4,185c0-0.5,0.2-0.7,0.7-0.7h1.3c0.5,0,0.7,0.3,0.7,0.7v2c0,0.5-0.3,0.7-0.7,0.7h-1.3c-0.4,0-0.7-0.3-0.7-0.7V185z
		 M1150.7,190.2h2.1v19.1h-2.1V190.2z"/>
	<path d="M1163.4,190c1.9,0,5.4,0.5,7.8,0.9v1.5c0,0-4.6-0.3-7.8-0.3c-2.5,0-4.2,0.7-4.2,7.8c0,6.2,1.5,7.6,4.2,7.6
		c3.3,0,8.1-0.5,8.1-0.5v1.5c-2.9,0.8-5.1,1-8.1,1c-3.6,0-6.3-1.4-6.3-9.8C1157.2,191.4,1159.8,190,1163.4,190z"/>
	<path d="M1182.7,190c6.4,0,8.3,2.7,8.3,10c0,7.1-1.9,9.5-8.3,9.5c-6.4,0-8.2-2.6-8.2-9.5C1174.4,192.2,1176.6,190,1182.7,190z
		 M1182.7,207.4c4.1,0,6.2-0.8,6.2-7.4c0-7.2-1.9-8-6.2-8c-4.1,0-6.2,0.6-6.2,8C1176.5,206.8,1178.7,207.4,1182.7,207.4z"/>
</g>
<g>
	<path d="M1239.2,64.7h30.7v1.7h-30.7V64.7z M1239.2,83.4h30.7v1.7h-30.7V83.4z"/>
</g>
<rect x="512" y="25.9" class="st1" width="123" height="168"/>
<g class="st2">
	<path d="M577.7,33.6c30.6,0,48.1,14.9,48.1,40.9c0,26.5-17.5,41.8-48.1,41.8h-39.1v43.2H535V33.6H577.7z M538.6,112.7h39.1
		c28.3,0,44.5-13.9,44.5-38.2c0-23.8-16.2-37.3-44.5-37.3h-39.1V112.7z"/>
</g>
<rect x="783.8" y="12.2" class="st1" width="155.2" height="154.2"/>
<g class="st2">
	<path d="M900.8,129.3c-11.5,10.1-26.8,16.4-43.4,16.4c-35.5,0-64.6-28.4-64.6-63s29.2-62.8,64.6-62.8c16.6,0,31.7,6.1,43.2,16.2
		l-2.3,2.3c-10.8-9.5-25.2-15.1-40.9-15.1c-33.7,0-61.2,26.6-61.2,59.4s27.5,59.6,61.2,59.6c15.1,0,29.2-5.4,39.8-14.4V84h3.6V129.3
		z"/>
</g>
<path class="st3" d="M1399,64c0-2.8,3.4-4.2,5.4-2.3l16.5,16.1c1.3,1.3,1.3,3.5-0.1,4.7l-20.8,18.1l-47.7-47.8
	c-1.7-1.7-1.7-4.5,0-6.2l46.9-46.9c1.2-1.2,3.1-1.2,4.3,0l65.7,65.6c1.5,1.6,1.5,4.1,0,5.6l-65.9,65.3c-1.8,1.8-4.8,0.5-4.7-2
	L1399,64z"/>
<g class="st2">
	<path class="st4" d="M1309.3,161.9c7.5,0,11.9,3.7,11.9,10.2c0,6.7-4.4,10.6-11.9,10.6h-8v9.6h-3.5v-30.5H1309.3z M1301.3,179.3
		h7.8c5.5,0,8.7-2.4,8.7-7.2c0-4.6-3.2-7-8.7-7h-7.8V179.3z"/>
	<path class="st4" d="M1330.9,184.6l-3.4,7.7h-3.7l13.7-30.5h3.6l13.6,30.5h-3.8l-3.4-7.7H1330.9z M1339.1,165.8l-6.8,15.4h13.7
		L1339.1,165.8z"/>
	<path class="st4" d="M1368.9,165.2v27.1h-3.5v-27.1h-9.9v-3.4h23.4v3.4H1368.9z"/>
	<path class="st4" d="M1400.5,182.6c-0.7,0-1.3,0.1-2,0.1h-8.1v9.6h-3.5v-30.5h11.6c7.6,0,12,3.7,12,10.2c0,5-2.4,8.4-6.8,9.9
		l7.1,10.4h-4L1400.5,182.6z M1398.4,179.3c5.5,0,8.7-2.4,8.7-7.2c0-4.6-3.1-7-8.7-7h-8.1v14.1H1398.4z"/>
	<path class="st4" d="M1421.3,192.3v-30.5h3.5v30.5H1421.3z"/>
	<path class="st4" d="M1461.1,166.2l-2.1,2.7c-2.4-2.4-5.7-3.8-9-3.8c-6.9,0-12.4,5.3-12.4,12c0,6.7,5.5,12,12.4,12
		c3.4,0,6.6-1.4,9-3.7l2.1,2.4c-3,2.8-7.1,4.7-11.3,4.7c-8.8,0-15.8-6.8-15.8-15.4c0-8.5,7.1-15.3,15.9-15.3
		C1454.1,161.8,1458.2,163.5,1461.1,166.2z"/>
	<path class="st4" d="M1470.4,192.3v-30.5h3.5v30.5H1470.4z"/>
	<path class="st4" d="M1488.7,184.6l-3.4,7.7h-3.7l13.7-30.5h3.6l13.6,30.5h-3.8l-3.4-7.7H1488.7z M1496.9,165.8l-6.8,15.4h13.7
		L1496.9,165.8z"/>
</g>
<g class="st2">
	<path class="st4" d="M1310.8,214.9v6.1c-1.6,1.3-3.7,2.2-5.9,2.2c-4.8,0-8.7-3.8-8.7-8.4s3.9-8.4,8.7-8.4c2.3,0,4.3,0.8,5.9,2.2
		l-0.6,0.7c-1.4-1.2-3.3-2-5.3-2c-4.2,0-7.7,3.3-7.7,7.4c0,4.1,3.5,7.5,7.7,7.5c1.8,0,3.6-0.6,5-1.7v-5.6H1310.8z"/>
	<path class="st4" d="M1329.4,216.3c0,4.4-2.5,6.9-6.8,6.9c-4.3,0-6.8-2.5-6.8-6.9v-9.9h1v9.9c0,3.7,2.1,5.9,5.8,5.9
		c3.6,0,5.8-2.2,5.8-5.9v-9.9h1V216.3z"/>
	<path class="st4" d="M1334.7,223.1v-16.8h1v16.8H1334.7z"/>
	<path class="st4" d="M1349.9,222.1v1h-8.5v-16.8h1v15.8H1349.9z"/>
	<path class="st4" d="M1362,222.1v1h-8.5v-16.8h1v15.8H1362z"/>
	<path class="st4" d="M1365.5,223.1v-16.8h1v16.8H1365.5z"/>
	<path class="st4" d="M1384.5,223.1l-11.2-15.2v15.2h-1v-16.8h1.2l11.2,15.2v-15.2h1v16.8H1384.5z"/>
	<path class="st4" d="M1405.2,206.3c3.3,0,5.2,1.5,5.2,4.1c0,2.1-1.2,3.5-3.2,3.9c2.6,0.3,4.1,1.9,4.1,4.2c0,2.9-2.2,4.5-6,4.5h-6.9
		v-16.8H1405.2z M1399.4,214h5.8c2.7,0,4.2-1.2,4.2-3.3c0-2.1-1.6-3.3-4.2-3.3h-5.8V214z M1399.4,222.1h5.8c3.2,0,5.1-1.3,5.1-3.6
		c0-2.3-1.8-3.5-5.1-3.5h-5.8V222.1z"/>
	<path class="st4" d="M1416.3,218.3l-2.2,4.8h-1.1l7.6-16.8h1.1l7.7,16.8h-1.1l-2.2-4.8H1416.3z M1421.2,207.5l-4.4,9.8h8.9
		L1421.2,207.5z"/>
	<path class="st4" d="M1439.9,217.4c-0.5,0.1-0.9,0.1-1.4,0.1h-4.9v5.6h-1v-16.8h5.9c4.2,0,6.5,2,6.5,5.5c0,2.9-1.5,4.7-4.1,5.4
		l4.2,5.9h-1.2L1439.9,217.4z M1438.5,216.5c3.5,0,5.5-1.7,5.5-4.7c0-3-2-4.6-5.5-4.6h-4.9v9.2H1438.5z"/>
	<path class="st4" d="M1457.2,217.4c-0.5,0.1-0.9,0.1-1.4,0.1h-4.9v5.6h-1v-16.8h5.9c4.2,0,6.5,2,6.5,5.5c0,2.9-1.5,4.7-4.1,5.4
		l4.2,5.9h-1.2L1457.2,217.4z M1455.8,216.5c3.5,0,5.5-1.7,5.5-4.7c0-3-2-4.6-5.5-4.6h-4.9v9.2H1455.8z"/>
	<path class="st4" d="M1468.2,207.3v6.7h8.7v1h-8.7v7.1h10.1v1h-11.1v-16.8h10.8v1H1468.2z"/>
	<path class="st4" d="M1482.7,223.1v-16.8h1v16.8H1482.7z"/>
	<path class="st4" d="M1496.8,217.4c-0.5,0.1-0.9,0.1-1.4,0.1h-4.9v5.6h-1v-16.8h5.9c4.2,0,6.5,2,6.5,5.5c0,2.9-1.5,4.7-4.1,5.4
		l4.2,5.9h-1.2L1496.8,217.4z M1495.4,216.5c3.5,0,5.5-1.7,5.5-4.7c0-3-2-4.6-5.5-4.6h-4.9v9.2H1495.4z"/>
	<path class="st4" d="M1522.3,214.7c0,4.7-3.9,8.4-8.7,8.4s-8.7-3.8-8.7-8.4s3.9-8.4,8.7-8.4S1522.3,210.1,1522.3,214.7z
		 M1506,214.7c0,4.1,3.5,7.4,7.7,7.4s7.7-3.3,7.7-7.4s-3.5-7.4-7.7-7.4S1506,210.6,1506,214.7z"/>
</g>
</svg>
