<?xml version="1.0" encoding="utf-8"?>
<!-- Generator: Adobe Illustrator 19.1.0, SVG Export Plug-In . SVG Version: 6.00 Build 0)  -->
<svg version="1.1" id="Capa_1" xmlns="http://www.w3.org/2000/svg" xmlns:xlink="http://www.w3.org/1999/xlink" x="0px" y="0px"
	 viewBox="430 -26.5 1144.3 335" style="enable-background:new 430 -26.5 1144.3 335;" xml:space="preserve">
<style type="text/css">
	.st0{fill:none;}
	.st1{fill:#000100;}
	.st2{fill:#698B88;}
	.st3{enable-background:new    ;}
	.st4{fill:none;stroke:#000000;stroke-miterlimit:10;}
	.st5{fill:none;stroke:#000100;stroke-miterlimit:10;}
	.st6{fill:none;stroke:#000100;stroke-miterlimit:10;stroke-dasharray:1,2;}
</style>
<path class="st0" d="M451.3,36.3c0.1-0.1,0.2-0.2,0.3-0.3"/>
<g>
	<g>
		<path d="M840.5,129.9h14.5v-14.5h1.9v14.5h14.6v1.9h-14.6v14.5h-1.9v-14.5h-14.5C840.5,131.8,840.5,129.9,840.5,129.9z"/>
	</g>
	<g>
		<path d="M1227.7,119.4h34.1v1.9h-34.1V119.4z M1227.7,140.2h34.1v1.9h-34.1V140.2z"/>
	</g>
	<g>
		<g>
			<path d="M1341.2,208.3c1.2-1,2.5-1.4,3.7-1.2c1.2,0.2,2.1,0.9,2.7,2.1c0.6,1.2,1.1,6.7,1.6,16.7c0.5,10,0.4,15.2-0.1,15.7
				c-0.4,0.4-0.9,0.5-1.7,0.3c-0.4-0.1-0.6-0.5-0.7-1c-0.1-0.5-0.1-1.4,0.1-2.6c0.2-1.9,0-3-0.6-3.5c-0.6-0.4-2.1-0.5-4.4-0.2
				l-3.2,0.5l-0.2,3.3c-0.1,1.2-0.2,2-0.4,2.5c-0.2,0.5-0.5,0.7-0.8,0.7c-1.5,0-1.7-5.8-0.7-17.5c0.4-4.9,1-8.5,1.7-10.9
				C1338.8,211.1,1339.8,209.4,1341.2,208.3z M1345.2,211c-0.3-0.8-0.7-1.2-1.1-1.1c-0.4,0.1-1.1,0.6-1.9,1.7
				c-1.4,1.8-2.5,7.1-3.3,16.1c-0.2,2.7-0.3,4.2-0.1,4.4c0.1,0.1,0.6,0.1,1.2-0.1c1.1-0.3,2.4-0.4,4-0.4h2.4l-0.4-9.7
				C1345.8,215.5,1345.6,211.8,1345.2,211z"/>
			<path d="M1351.6,208.1c0.1-0.6,0.4-0.7,1.1-0.2c0.6,0.4,0.9,1,1,1.7c0.1,0.9,0.3,1.4,0.6,1.4c0.2,0.1,0.7-0.3,1.4-1
				c1-1,2.1-1.5,3.2-1.6c1.1-0.1,2,0.3,2.5,1.2c0.6,0.9,0.7,1.9,0.3,3.3c-0.4,1.4-0.6,6.7-0.6,15.8c0,5.9-0.1,9.6-0.2,11.3
				c-0.1,1.6-0.4,2.5-0.9,2.5c-0.7,0-1.2-1.2-1.5-3.5c-0.4-2.6-0.5-7-0.5-13.1c0-6.1,0.2-9.9,0.6-11.5c0.4-1.9,0.5-2.9,0.3-3.2
				c-0.2-0.2-1,0.4-2.4,2l-2.1,2.3l-0.2,13.5c-0.1,7.8-0.3,12.1-0.6,13c-0.2,0.4-0.4,0.6-0.7,0.7c-0.5,0.1-1-0.2-1.5-0.8
				c-0.5-0.6-0.7-1.3-0.8-2.1c-0.1-0.8,0.1-1.5,0.4-2.2c0.4-0.6,0.6-3.3,0.7-7.8c0.1-4.6,0-9.2,0-14
				C1351.5,211.1,1351.5,208.6,1351.6,208.1z"/>
			<path d="M1363.8,212.7c0.1-0.2,0.2-0.4,0.5-0.6s0.5-0.2,0.7-0.1c0.5,0.2,0.8,5,0.9,14.5c0.1,9.5-0.1,14.4-0.7,14.7
				c-0.2,0.1-0.4,0.1-0.7-0.1c-0.3-0.2-0.6-0.4-0.8-0.8c-0.4-0.5-0.6-1.7-0.7-3.6c-0.1-1.9,0-5.3,0.1-10.4
				C1363.3,217.9,1363.6,213.3,1363.8,212.7z M1364.1,208.3c0-0.7,0.2-1.1,0.6-1.3c0.4-0.1,0.8-0.1,1.2,0.3c0.4,0.3,0.6,0.7,0.6,1
				c0,0.3-0.1,0.6-0.3,0.8c-0.2,0.2-0.5,0.4-0.9,0.5c-0.4,0.1-0.7,0-0.9-0.2C1364.2,209.2,1364.1,208.9,1364.1,208.3z"/>
			<path d="M1369.7,207.1c0.2-0.8,0.7-1,1.3-0.6c0.5,0.3,0.9,0.9,1,1.7c0.1,0.7,0.3,1.1,0.5,1.1c0.2,0,0.6-0.2,1.3-0.6
				c1-0.7,2.1-1.1,3.1-1c1,0,1.7,0.4,2,1.2c0.2,0.6,0.4,0.9,0.5,0.9s0.3-0.3,0.7-0.9c0.4-0.7,1.3-1.1,2.7-1.2c1.4,0,2.3,0.3,2.9,1
				c0.7,0.9,1.1,2.5,1.2,5c0.1,2.5-0.1,5.1-0.4,7.7c-0.3,2.6-0.7,5.9-1.3,9.8c-0.5,3.9-0.9,7-1.1,9.1c-0.1,1-0.3,1.6-0.7,2
				s-0.7,0.3-1.1-0.1c-0.4-0.4-0.6-1.1-0.7-2.1c-0.1-1.6,0.3-6.3,1.3-14.2c1.3-10.2,1.4-15.3,0.3-15.3c-0.5,0-1.2,0.7-2.1,2.2
				c-0.7,1.2-1.3,2.9-1.6,5.2c-0.3,2.3-0.8,7.4-1.4,15.2c-0.4,6-1.2,8.7-2.4,8.1c-0.1-0.1-0.2-0.2-0.4-0.3c-0.1-0.1-0.2-0.7-0.2-1.5
				c0-0.9,0-2.1,0.1-3.8c0.1-1.7,0.2-3.3,0.3-4.9c0.1-1.6,0.3-3.7,0.5-6.3c0.2-2.6,0.3-4.8,0.5-6.6l0.5-7.8l-2.2,2.1
				c-0.5,0.5-0.9,0.9-1.1,1.1c-0.2,0.3-0.4,0.6-0.6,0.9c-0.2,0.3-0.3,0.8-0.4,1.6c-0.1,0.7-0.1,1.4-0.1,2.1c0,0.7-0.1,1.9-0.1,3.5
				c0,5.2-0.3,9.7-0.9,13.7c-0.6,4-1.2,6-1.9,6.1c-0.7,0.1-1.3-0.3-1.5-1.3c-0.3-1-0.2-2.2,0.3-3.7c0.4-1.2,0.7-6.3,1-15.3
				C1369.4,212.1,1369.6,207.4,1369.7,207.1z"/>
			<path d="M1391.6,207.6c0.1-0.2,0.6-0.3,1.4-0.4c0.8-0.1,1.7-0.1,2.6-0.1c2.1,0.1,3.4,0.5,4,1.2c1,0.9,1.5,3.4,1.7,7.5
				c0.1,2,0.1,5.5,0.1,10.5v14.8l-5.1-0.1c-2.9-0.1-4.8-0.4-6-1c-1.1-0.6-1.9-1.8-2.3-3.6c-0.6-2.7,0.1-4.5,2.1-5.4
				c1-0.5,2.2-0.6,3.7-0.4c1.4,0.2,2.5,0.7,3,1.4c0.6,0.6,1.1,1,1.4,1c0.3,0,0.5-1.5,0.6-4.5c0.1-3,0.1-6.1-0.1-9.5
				c-0.1-3.4-0.3-5.6-0.6-6.6c-0.4-1.3-0.7-2-1-2.3c-0.3-0.2-1.2-0.4-2.5-0.4c-1.4,0-2.4-0.2-2.9-0.6
				C1391.2,208.8,1391.2,208.3,1391.6,207.6z M1397.4,236.3c-0.6-1-1.7-1.7-3-2.4c-1.4-0.6-2.4-0.7-3-0.3c-0.6,0.4-0.7,1.1-0.4,2.3
				c0.2,0.7,0.5,1.3,1,1.5c0.5,0.3,1.4,0.5,2.7,0.7c2.1,0.3,3.3,0.3,3.6,0.1C1398.3,238.1,1398.1,237.4,1397.4,236.3z"/>
			<path d="M1404.9,208.5c0.1-0.2,0.2-0.4,0.5-0.6c0.2-0.1,0.5-0.2,0.7-0.1c0.6,0.2,0.9,2.8,0.9,7.8c0,5-0.3,10.5-1,16.5
				c-0.6,6-1.2,9.2-1.9,9.7c-0.3,0.2-0.7,0.1-1.2-0.4c-0.2-0.2-0.4-0.7-0.4-1.6c0-0.9,0-2,0.2-3.6c0.1-1.5,0.3-3.2,0.5-4.9
				c0.2-1.7,0.4-3.9,0.6-6.6c0.2-2.6,0.4-5.2,0.5-7.6C1404.5,212,1404.7,209.1,1404.9,208.5z"/>
			<path d="M1408.8,212.7c0.1-0.2,0.2-0.4,0.5-0.6s0.5-0.2,0.7-0.1c0.5,0.2,0.8,5,0.9,14.5c0.1,9.5-0.1,14.4-0.7,14.7
				c-0.2,0.1-0.4,0.1-0.7-0.1c-0.3-0.2-0.6-0.4-0.8-0.8c-0.4-0.5-0.6-1.7-0.7-3.6c-0.1-1.9,0-5.3,0.1-10.4
				C1408.4,217.9,1408.6,213.3,1408.8,212.7z M1409.1,208.3c0-0.7,0.2-1.1,0.6-1.3c0.4-0.1,0.8-0.1,1.2,0.3c0.4,0.3,0.6,0.7,0.6,1
				c0,0.3-0.1,0.6-0.3,0.8c-0.2,0.2-0.5,0.4-0.9,0.5c-0.4,0.1-0.7,0-0.9-0.2C1409.2,209.2,1409.1,208.9,1409.1,208.3z"/>
			<path d="M1416.5,207.6c0.1-0.2,0.6-0.3,1.4-0.4c0.8-0.1,1.7-0.1,2.6-0.1c2.1,0.1,3.4,0.5,4,1.2c1,0.9,1.5,3.4,1.7,7.5
				c0.1,2,0.1,5.5,0.1,10.5v14.8l-5.1-0.1c-2.9-0.1-4.8-0.4-6-1c-1.1-0.6-1.9-1.8-2.3-3.6c-0.6-2.7,0.1-4.5,2.1-5.4
				c1-0.5,2.2-0.6,3.7-0.4c1.4,0.2,2.5,0.7,3,1.4c0.6,0.6,1.1,1,1.4,1c0.3,0,0.5-1.5,0.6-4.5c0.1-3,0.1-6.1-0.1-9.5
				c-0.1-3.4-0.3-5.6-0.6-6.6c-0.4-1.3-0.7-2-1-2.3c-0.3-0.2-1.2-0.4-2.5-0.4c-1.4,0-2.4-0.2-2.9-0.6
				C1416.1,208.8,1416,208.3,1416.5,207.6z M1422.2,236.3c-0.6-1-1.7-1.7-3-2.4c-1.4-0.6-2.4-0.7-3-0.3c-0.6,0.4-0.7,1.1-0.4,2.3
				c0.2,0.7,0.5,1.3,1,1.5c0.5,0.3,1.4,0.5,2.7,0.7c2.1,0.3,3.3,0.3,3.6,0.1C1423.2,238.1,1422.9,237.4,1422.2,236.3z"/>
		</g>
		<g>
			<path class="st1" d="M1400.5,64.9c13.1-13.9,19.4,1.6,19.4,1.6S1412.3,60.4,1400.5,64.9z"/>
			<path class="st2" d="M1469.5,89.8c-11.3-43.3-38.1-53.1-47.2-58.2c-9.1-5-16.8-5.5-21.8-6.3c-5-0.9-16.2-1.2-16.2-1.2l9.7,2.1
				c0,0,34,10.1,40.9,39.6c6.8,29.6-6,31.9-15.9,38.9c-9.9,7.1-31.7,18.2-40.2,50.3c-4.4,17,11,27.6,11,27.6l13.5,9.9l5.6-1.7
				c0,0-4.1-14.4,9.9-25.9c14.1-11.5,25.9,3.2,27.2,4.8c1.6-0.7,4.3-4.4,4.3-4.4S1480.9,133,1469.5,89.8z M1420,119.5
				c-1.9,0-3.5-1.6-3.5-3.5c0-2,1.6-3.6,3.5-3.6c2,0,3.6,1.6,3.6,3.6C1423.5,117.9,1421.9,119.5,1420,119.5z"/>
			<path class="st1" d="M1393.9,52c0,2-1.6,3.6-3.6,3.6c-2,0-3.6-1.6-3.6-3.6c0-2,1.6-3.6,3.6-3.6C1392.3,48.4,1393.9,50,1393.9,52z
				"/>
			<path class="st1" d="M1417.6,62.8L1417.6,62.8z"/>
			<path class="st1" d="M1323.6,165.2c-4.4-5.2-16.7-20.9-20.4-40.3c-3.7-19.3-0.7-37.4,7.1-52.9c7.8-15.5,15.7-26.1,39-39.9
				c18.3-10.3,39.5-4.5,45.1-2.4c8.7,3,19,13.4,18.2,22.6c-0.8,9.2-12.2,12.9-12.2,12.9s5.2-4.8,6.3-9.2c1.1-4.4,0.8-5.6-0.6-8.4
				c-1.3-2.9-3.9-5.4-5.9-6.5c-2-1.2-6.3-2.8-15.4-0.5c-9.1,2.2-13.6,11.7-15.3,16.6c-1.7,4.9-1.5,18.6,0,24.7
				c1.5,6.2,2.1,19.8,3.6,28.2c1.5,8.4,2.2,24.7,0.1,33.1c-2,8.4-8.1,17.6-8.1,17.6l-2.5,3.4c0,0-1.7,2.3-5.9,6
				c-4.1,3.7-16.2,10-16.2,10S1328,170.4,1323.6,165.2z"/>
		</g>
	</g>
	<g>
		<g class="st3">
			<path d="M858.4,222.8c0-3.9,2.4-5.3,5-5.2l12.4,0.6v1.7h-12.4c-2.2,0-2.8,1.2-2.8,2.9v8.4l13.6,0.3v1.7l-13.6,0.3v8.4
				c0,2.7,1.6,2.8,3.2,2.8h12v1.7l-12,0.6c-2.6,0.1-5.4-0.5-5.4-5V222.8z"/>
			<path d="M880.4,215.6h2.3v23.8c0,4.4,1.5,5,2.8,5.3c0,0,3.1,0.7,3.4,0.7v1.6h-3.2c-3.2,0-5.2-2-5.2-7.6V215.6z"/>
			<path d="M899.2,225.5c4.9,0,8.1,0.5,8.1,7.5c0,3.1-1.8,4.5-5.5,4.5h-9.2c0,6.1,1.5,7.3,4.7,7.3c3.7,0,6.6-0.1,9.6-0.5v1.7
				c-3.2,0.9-6.3,1.1-9.6,1.1c-5.4,0-7-2.8-7-10.9C890.3,226.8,892.8,225.5,899.2,225.5z M901.8,235.3c1.9,0,3.2-0.5,3.2-2.3
				c0-4.8-1.3-5.2-5.8-5.2c-4.9,0-6.6,0.4-6.6,7.5H901.8z"/>
			<path d="M909.9,226.3l3.7-0.6v-4c0-2.2,0.1-6.2,4.5-6.2c1.7,0,4,0.3,5.7,0.8v1.5c0,0-5.2,0-5.2,0c-2.6,0-2.8,1.7-2.8,4v4h6.3v2.3
				H916v19h-2.3v-19h-3.7V226.3z"/>
			<path d="M925.8,239.4c0-3.3,2-5.3,5.3-5.3c0,0,9.2,0,9.2,0c0,0,0-2.6,0-2.7c0-2.5-1.2-3.9-3.9-4c-2.9,0-6.1,0.3-9.9,0.6v-1.6
				c2.7-0.7,6-1.2,10-1.2c3.3,0,6.1,1.8,6.1,6.2v15.5h-1.7l-0.6-2.6c-0.1,0-5.4,2.8-9.2,2.8c-2.9,0-5.3-1.9-5.3-5.3V239.4z
				 M931.1,244.9c3.2,0,9.2-2.2,9.2-2.2v-6.9l-9.2,0.6c-2.2,0.1-3,1.5-3,3.2v2.1C928.1,244.1,929.6,244.9,931.1,244.9z"/>
			<path d="M947.5,225.7h1.6l0.7,2.5c2.4-1.4,4.9-2.8,8.1-2.8c4.2,0,6.6,3.3,6.6,6.8v14.8h-2.3v-14.8c0-2.8-1.7-4.5-4.3-4.5
				c-3.3,0-5.1,0.8-8.1,2.3v17h-2.3V225.7z"/>
			<path d="M967.2,226.2l3.8-0.6l0.6-5.9h1.7v5.9h6.5v2.3h-6.5v11.4c0,4.4,1.5,5,2.8,5.3c0,0,3.1,0.7,3.4,0.7v1.6h-3.2
				c-3.2,0-5.2-2-5.2-7.6v-11.4h-3.8V226.2z"/>
			<path d="M992.1,225.5c4.9,0,8.1,0.5,8.1,7.5c0,3.1-1.8,4.5-5.5,4.5h-9.2c0,6.1,1.5,7.3,4.7,7.3c3.7,0,6.6-0.1,9.6-0.5v1.7
				c-3.2,0.9-6.3,1.1-9.6,1.1c-5.4,0-7-2.8-7-10.9C983.2,226.8,985.8,225.5,992.1,225.5z M994.8,235.3c1.9,0,3.2-0.5,3.2-2.3
				c0-4.8-1.3-5.2-5.8-5.2c-4.9,0-6.6,0.4-6.6,7.5H994.8z"/>
			<path d="M1014.7,231.5h6.9v-7h2.3v7h7v2.3h-7v7h-2.3v-7h-6.9V231.5z"/>
			<path d="M1047.1,217.6h10.9c5.9,0,7.6,3.9,7.6,7.5c0,3.3-1.5,5.8-4.2,6.5c1.8,0.4,4.3,2.5,4.3,7.1c0,4.1-1.6,8.2-7.8,8.2h-10.9
				V217.6z M1058,230.5c3.2,0,5.3-1.8,5.3-5.3c0.1-4.2-2.5-5.2-5.3-5.2h-8.6v10.5H1058z M1058,244.6c2.3,0,5.5-0.8,5.5-5.9
				c0-3.2-2-6-5.5-5.9h-8.6v11.9H1058z"/>
			<path d="M1069.2,239.4c0-3.3,2-5.3,5.3-5.3c0,0,9.2,0,9.2,0c0,0,0-2.6,0-2.7c0-2.5-1.2-3.9-3.9-4c-2.9,0-6.1,0.3-9.9,0.6v-1.6
				c2.7-0.7,6-1.2,10-1.2c3.3,0,6.1,1.8,6.1,6.2v15.5h-1.7l-0.6-2.6c-0.1,0-5.4,2.8-9.2,2.8c-2.9,0-5.3-1.9-5.3-5.3V239.4z
				 M1074.5,244.9c3.2,0,9.2-2.2,9.2-2.2v-6.9l-9.2,0.6c-2.2,0.1-3,1.5-3,3.2v2.1C1071.5,244.1,1073,244.9,1074.5,244.9z"/>
			<path d="M1090.9,215.6h2.3v23.8c0,4.4,1.5,5,2.8,5.3c0,0,3.1,0.7,3.4,0.7v1.6h-3.2c-3.2,0-5.2-2-5.2-7.6V215.6z"/>
			<path d="M1102.8,215.6h2.3v23.8c0,4.4,1.5,5,2.8,5.3c0,0,3.1,0.7,3.4,0.7v1.6h-3.2c-3.2,0-5.2-2-5.2-7.6V215.6z"/>
			<path d="M1121.6,225.5c4.9,0,8.1,0.5,8.1,7.5c0,3.1-1.8,4.5-5.5,4.5h-9.2c0,6.1,1.5,7.3,4.7,7.3c3.7,0,6.6-0.1,9.6-0.5v1.7
				c-3.2,0.9-6.3,1.1-9.6,1.1c-5.4,0-7-2.8-7-10.9C1112.8,226.8,1115.3,225.5,1121.6,225.5z M1124.3,235.3c1.9,0,3.2-0.5,3.2-2.3
				c0-4.8-1.3-5.2-5.8-5.2c-4.9,0-6.6,0.4-6.6,7.5H1124.3z"/>
			<path d="M1134.2,225.7h1.6l0.7,2.5c2.4-1.4,4.9-2.8,8.1-2.8c4.2,0,6.6,3.3,6.6,6.8v14.8h-2.3v-14.8c0-2.8-1.7-4.5-4.3-4.5
				c-3.3,0-5.1,0.8-8.1,2.3v17h-2.3V225.7z"/>
			<path d="M1155.2,239.4c0-3.3,2-5.3,5.3-5.3c0,0,9.2,0,9.2,0c0,0,0-2.6,0-2.7c0-2.5-1.2-3.9-3.9-4c-2.9,0-6.1,0.3-9.9,0.6v-1.6
				c2.7-0.7,6-1.2,10-1.2c3.3,0,6.1,1.8,6.1,6.2v15.5h-1.7l-0.6-2.6c-0.1,0-5.4,2.8-9.2,2.8c-2.9,0-5.3-1.9-5.3-5.3V239.4z
				 M1160.5,244.9c3.2,0,9.2-2.2,9.2-2.2v-6.9l-9.2,0.6c-2.2,0.1-3,1.5-3,3.2v2.1C1157.5,244.1,1158.9,244.9,1160.5,244.9z"/>
		</g>
		<g>
			<g>
				<path class="st4" d="M997,140.5c11.8-41.8-5.8-63.3-10.9-72c-5.1-8.7-11.4-12.8-15.2-16c-3.7-3.2-13-9-13-9l7.1,6.6
					c0,0,23.5,25.1,14.8,53.3c-8.8,28.2-20.7,23.8-32.5,24.8c-11.8,1.1-35.5-0.3-58.5,22.4c-12.1,12-4.4,28.5-4.4,28.5l6.4,15
					l5.5,1.3c0,0,3.7-14.1,21.1-16.9c17.4-2.7,20.1,15.4,20.5,17.4c1.6,0.2,5.7-1.6,5.7-1.6S985.3,182.3,997,140.5z M940.9,141
					c-1.6-0.9-2.2-3.1-1.2-4.7c1-1.7,3.1-2.2,4.7-1.3c1.7,1,2.2,3.1,1.2,4.8C944.7,141.4,942.5,142,940.9,141z"/>
				<path class="st4" d="M966.7,92.3L966.7,92.3z"/>
			</g>
			<g>
				<path class="st4" d="M1128.8,191.2c42.7-8.3,53.9-33.7,59.3-42.2c5.4-8.5,6.3-16,7.4-20.8c1.1-4.8,2.1-15.6,2.1-15.6l-2.7,9.3
					c0,0-11.8,32.3-41,37.2c-29.2,4.8-30.6-7.8-36.8-17.9c-6.2-10-15.7-31.8-46.3-42.1c-16.2-5.3-27.4,8.9-27.4,8.9l-10.5,12.5
					l1.3,5.6c0,0,14.3-3.1,24.6,11.2c10.3,14.4-4.7,24.9-6.3,26.1c0.6,1.5,4,4.4,4,4.4S1086.1,199.6,1128.8,191.2z M1103,141.4
					c0.1-1.9,1.8-3.3,3.6-3.2c1.9,0.1,3.4,1.8,3.3,3.6c-0.1,1.9-1.8,3.4-3.7,3.3C1104.3,144.9,1102.9,143.3,1103,141.4z"/>
				<path class="st4" d="M1158.1,142.5L1158.1,142.5z"/>
			</g>
		</g>
	</g>
	<g>
		<g class="st3">
			<path d="M532.3,217.6H544c3.2,0,7,1.2,7,8.3c0,8.3-4.1,8.7-7,8.7c-1.6,0-9.2-0.5-9.4-0.7v12.9h-2.3V217.6z M544,232.4
				c2.4,0,4.7-0.8,4.7-6.4c-0.1-5.6-2.7-6-4.7-6h-9.4v12.4H544z"/>
			<path d="M555.2,219.9c0-0.5,0.3-0.8,0.8-0.8h1.5c0.5,0,0.8,0.4,0.8,0.8v2.3c0,0.5-0.3,0.8-0.8,0.8H556c-0.5,0-0.8-0.3-0.8-0.8
				V219.9z M555.5,225.7h2.3v21.3h-2.3V225.7z"/>
			<path d="M563.1,225.7h1.6l0.7,2.5c2.4-1.4,4.9-2.8,8.1-2.8c4.2,0,6.6,3.3,6.6,6.8v14.8h-2.3v-14.8c0-2.8-1.7-4.5-4.3-4.5
				c-3.3,0-5.1,0.8-8.1,2.3v17h-2.3V225.7z"/>
			<path d="M587.1,239.1c-2.2-1.1-2.7-3.8-2.7-6c0-5.2,2.4-7.6,6.9-7.6h12.5v1.7l-3.7,0.6c0.5,0.7,1.6,1.8,1.6,5.3
				c0,2.4-0.9,7.5-6.6,7.5h-6.2c-0.6,0-2.3,0.2-2.3,1.6c0,1.2,1.2,1.7,2.2,1.7h8.4c3.5,0,5.4,2.2,5.4,5.5v2.4c0,2.4-0.8,6-6,6h-6
				c-3.8,0-6.3-2.1-6.3-6.2V248l1.2-3.1c-0.8-0.7-1.1-1.7-1.1-2.6C584.4,241,585.2,239.4,587.1,239.1z M590.6,255.5h6
				c2.5,0,3.7-1.2,3.7-3.7v-2.3c0-2-0.7-3.3-3.4-3.3h-8c-1.6,0-2.3-0.6-2.3-0.6v6C586.6,255,589.2,255.5,590.6,255.5z M591,238.3h4
				c3.6,0,4.6-2.9,4.5-5.2c-0.1-3.4-1.2-5.3-3.9-5.3h-4.4c-3.7,0-4.5,2.5-4.5,5.3C586.7,235.9,587.8,238.3,591,238.3z"/>
			<path d="M606.9,225.7h2.3v14.8c0,2.8,1.7,4.5,4.3,4.5c3.3,0,5.1-0.8,8.1-2.3v-17h2.3v21.3h-1.6l-0.7-2.5
				c-2.4,1.4-4.9,2.8-8.1,2.8c-4.2,0-6.6-3.3-6.6-6.8V225.7z M610.3,219.9c0.9,0,1.6,0.7,1.6,1.6c0,0.9-0.7,1.6-1.6,1.6
				s-1.6-0.7-1.6-1.6C608.7,220.6,609.4,219.9,610.3,219.9z M620.5,219.9c0.9,0,1.6,0.7,1.6,1.6c0,0.9-0.7,1.6-1.6,1.6
				c-0.9,0-1.6-0.7-1.6-1.6C618.9,220.6,619.6,219.9,620.5,219.9z"/>
			<path d="M628.8,219.9c0-0.5,0.3-0.8,0.8-0.8h1.5c0.5,0,0.8,0.4,0.8,0.8v2.3c0,0.5-0.3,0.8-0.8,0.8h-1.5c-0.5,0-0.8-0.3-0.8-0.8
				V219.9z M629.1,225.7h2.3v21.3h-2.3V225.7z"/>
			<path d="M636.7,225.7h1.6l0.7,2.5c2.4-1.4,4.9-2.8,8.1-2.8c4.2,0,6.6,3.3,6.6,6.8v14.8h-2.3v-14.8c0-2.8-1.7-4.5-4.3-4.5
				c-3.3,0-5.1,0.8-8.1,2.3v17h-2.3V225.7z"/>
			<path d="M666.9,225.5c7.1,0,9.2,3,9.2,11.1c0,7.8-2.2,10.5-9.2,10.5c-7.1,0-9.1-2.9-9.1-10.5
				C657.7,227.9,660.1,225.5,666.9,225.5z M666.9,244.8c4.6,0,6.9-0.9,6.9-8.2c0-8-2.2-8.8-6.9-8.8c-4.6,0-6.9,0.6-6.9,8.8
				C660,244.1,662.4,244.8,666.9,244.8z"/>
			<path d="M690.9,231.5h6.9v-7h2.3v7h7v2.3h-7v7h-2.3v-7h-6.9V231.5z"/>
			<path d="M722.4,217.6h11.7c3.2,0,7,1.2,7,8.3c0,8.3-4.1,8.7-7,8.7c-1.6,0-9.2-0.5-9.4-0.7v12.9h-2.3V217.6z M734.1,232.4
				c2.4,0,4.7-0.8,4.7-6.4c-0.1-5.6-2.7-6-4.7-6h-9.4v12.4H734.1z"/>
			<path d="M754.2,225.5c4.9,0,8.1,0.5,8.1,7.5c0,3.1-1.8,4.5-5.5,4.5h-9.2c0,6.1,1.5,7.3,4.7,7.3c3.7,0,6.6-0.1,9.6-0.5v1.7
				c-3.2,0.9-6.3,1.1-9.6,1.1c-5.4,0-7-2.8-7-10.9C745.3,226.8,747.8,225.5,754.2,225.5z M756.8,235.3c1.9,0,3.2-0.5,3.2-2.3
				c0-4.8-1.3-5.2-5.8-5.2c-4.9,0-6.6,0.4-6.6,7.5H756.8z"/>
			<path d="M765.4,225.7h15.8v2.3L769,244.6h12.3c0,0,0,2.3,0,2.3H766v-2.3l12.4-16.6h-13V225.7z"/>
		</g>
		<g>
			<path class="st1" d="M715,61.8L715,61.8z"/>
			<g>
				<path class="st5" d="M665.4,86.9c0,0-3.3-8.1-10.2-7.1c1.5-1.8,2.7-4,2.9-6.7c0.7-8.9-9.2-19.1-17.7-22
					c-5.4-2.1-26.1-7.7-43.8,2.4c-22.6,13.3-30.3,23.7-37.9,38.8c-7.6,15.1-10.4,32.7-6.9,51.5c3.6,18.8,15.5,34.1,19.8,39.1
					c4.3,5,16.5,14.6,16.5,14.6s11.7-6.2,15.7-9.7c4-3.6,5.7-5.9,5.7-5.9l2.4-3.4c0,0,5.9-8.9,7.9-17.1c2-8.1,1.3-24-0.1-32.2
					c-1.4-8.1-2.1-21.4-3.5-27.4c-1.4-6-1.7-19.3,0-24c1.6-4.7,6.1-14,14.9-16.1c8.8-2.2,13-0.6,15,0.5c1.9,1.1,4.4,3.6,5.7,6.4
					c1.3,2.8,1.6,3.9,0.6,8.2c-0.6,2.4-2.5,5-4,6.8c-0.6,0.5-1.2,1.1-1.9,1.8c0.1,0,0.2-0.1,0.3-0.1c-0.3,0.3-0.5,0.4-0.5,0.4
					s1.1-0.4,2.7-1.2C659,81.9,665.4,86.9,665.4,86.9z"/>
				<path class="st5" d="M636.6,69.4c-1.9,0-3.5,1.5-3.5,3.5c0,1.9,1.5,3.5,3.5,3.5c1.9,0,3.5-1.6,3.5-3.5
					C640.1,70.9,638.5,69.4,636.6,69.4z"/>
			</g>
			<path class="st6" d="M652.6,86.7c-4.6,2-9.2,5.1-11.1,9.8c-2.2,5.5-0.1,11.6,1.3,17.3c2.9,11.5,3.3,23.6,1.1,35.2
				c-0.4,0.1,0.3-0.4-0.1-0.2c-1.3,3.2-2.2,6.6-3.5,9.9c-1.2,2.9-2.5,5.9-4,8.7c-7.1,12.7-20.3,20.7-33,27.8c-2.6,1.4-5.5,1-8.4,0.7
				"/>
			<g>
				<path class="st5" d="M697.5,90.8c0,0-6.8,5.6-3.7,11.8c-2.2-0.9-4.6-1.4-7.3-0.8c-8.7,2-15.4,14.6-15.7,23.5
					c-0.3,5.8,0.5,27.2,15.4,41.1c19.5,17.5,31.7,21.8,48.4,24.5c16.7,2.7,34.3,0.1,51.1-8.9c16.8-9.1,27.8-25.1,31.4-30.7
					c3.5-5.6,8.9-20.2,8.9-20.2s-9.4-9.3-14-12.1c-4.6-2.8-7.3-3.7-7.3-3.7l-3.9-1.3c0,0-10.3-3-18.7-2.4c-8.4,0.6-23.3,6-30.6,9.8
					c-7.3,3.8-19.8,8.5-25.1,11.6c-5.3,3.1-17.9,7.4-22.9,7.2c-5-0.1-15.1-1.6-19.9-9.4c-4.7-7.8-4.5-12.2-4-14.4
					c0.5-2.2,2.1-5.3,4.4-7.4c2.3-2.1,3.2-2.7,7.6-3c2.5-0.2,5.5,0.9,7.7,1.8c0.7,0.4,1.5,0.8,2.3,1.3c-0.1-0.1-0.1-0.2-0.2-0.2
					c0.4,0.2,0.6,0.3,0.6,0.3s-0.7-1-1.9-2.2C694.6,98.4,697.5,90.8,697.5,90.8z"/>
			</g>
		</g>
	</g>
</g>
</svg>
