<?xml version="1.0" encoding="utf-8"?>
<!-- Generator: Adobe Illustrator 19.1.0, SVG Export Plug-In . SVG Version: 6.00 Build 0)  -->
<svg version="1.1" id="Capa_1" xmlns="http://www.w3.org/2000/svg" xmlns:xlink="http://www.w3.org/1999/xlink" x="0px" y="0px"
	 viewBox="-99 99.4 84 86.1" style="enable-background:new -99 99.4 84 86.1;" xml:space="preserve">
<style type="text/css">
	.st0{fill:none;stroke:#FFFFFF;stroke-width:2;stroke-miterlimit:10;}
</style>
<g>
	<path id="Behance" class="st0" d="M-34,129.1h-15v-3.7h15V129.1L-34,129.1z M-56.8,144.4c1,1.5,1.4,3.3,1.4,5.4
		c0,2.2-0.5,4.2-1.7,5.9c-0.7,1.2-1.6,2.1-2.6,2.9c-1.2,0.9-2.6,1.5-4.2,1.9c-1.6,0.3-3.4,0.5-5.2,0.5h-16.7v-37.1h17.9
		c4.5,0.1,7.7,1.4,9.6,4c1.1,1.6,1.7,3.5,1.7,5.7c0,2.3-0.6,4.1-1.7,5.5c-0.6,0.8-1.6,1.5-2.8,2.1
		C-59.2,141.8-57.8,142.9-56.8,144.4z M-77.3,138.5h7.9c1.6,0,2.9-0.3,3.9-0.9c1-0.6,1.5-1.7,1.5-3.3c0-1.7-0.7-2.9-2-3.4
		c-1.1-0.4-2.6-0.6-4.4-0.6h-6.9V138.5z M-63.2,149.3c0-1.9-0.8-3.3-2.4-4c-0.9-0.4-2.1-0.6-3.7-0.6h-8v9.9h7.8
		c1.6,0,2.9-0.2,3.8-0.7C-64,153.1-63.2,151.6-63.2,149.3z M-28.4,143.2c0.2,1.2,0.3,3,0.2,5.3h-19.4c0.1,2.7,1,4.5,2.8,5.6
		c1.1,0.7,2.3,1,3.8,1c1.6,0,2.9-0.4,3.9-1.2c0.5-0.4,1-1.1,1.4-1.8h7.1c-0.2,1.6-1,3.2-2.6,4.8c-2.4,2.6-5.7,3.9-10,3.9
		c-3.5,0-6.7-1.1-9.4-3.3c-2.7-2.2-4.1-5.7-4.1-10.7c0-4.6,1.2-8.2,3.7-10.6c2.5-2.5,5.6-3.7,9.5-3.7c2.3,0,4.4,0.4,6.3,1.2
		c1.9,0.8,3.4,2.1,4.6,3.9C-29.4,139.3-28.7,141.1-28.4,143.2z M-35.4,143.9c-0.1-1.8-0.7-3.2-1.9-4.2c-1.1-1-2.5-1.4-4.1-1.4
		c-1.8,0-3.2,0.5-4.2,1.5s-1.6,2.4-1.9,4.1C-47.5,143.9-35.4,143.9-35.4,143.9z"/>
</g>
</svg>
