<?xml version="1.0" encoding="utf-8"?>
<!-- Generator: Adobe Illustrator 19.1.0, SVG Export Plug-In . SVG Version: 6.00 Build 0)  -->
<svg version="1.1" id="Capa_1" xmlns="http://www.w3.org/2000/svg" xmlns:xlink="http://www.w3.org/1999/xlink" x="0px" y="0px"
	 viewBox="73 -73.7 430.1 430.1" style="enable-background:new 73 -73.7 430.1 430.1;" xml:space="preserve">
<style type="text/css">
	.st0{fill:none;stroke:#362744;stroke-width:8;stroke-miterlimit:10;}
    
</style>
<g>
	<path id="Skype" class="st0" d="M476,171c1.5-9.7,2.3-19.6,2.3-29.7c0-105-85.1-190.2-190.2-190.2c-10.1,0-20,0.8-29.7,2.3
		c-17.5-10.8-38.2-17.1-60.3-17.1c-63.5,0-114.9,51.4-114.9,114.9c0,22.1,6.3,42.8,17.1,60.3c-1.5,9.7-2.3,19.6-2.3,29.7
		c0,105,85.1,190.2,190.1,190.2c10.1,0,20-0.8,29.7-2.3c17.5,10.8,38.2,17.1,60.3,17.1c63.5,0,114.9-51.5,114.9-114.9
		C493.1,209.1,486.9,188.5,476,171z"/>
	<path class="st0" d="M390.4,188.7c0,14.5-4,27.6-12.1,39.1c-8,11.6-19.9,20.6-35.3,27.1c-15.5,6.5-33.8,9.8-54.9,9.8
		c-25.3,0-46.3-4.4-62.8-13.4c-11.7-6.4-21.3-15-28.6-25.7c-7.3-10.7-11.1-21.2-11.1-31.5c0-6,2.3-11.3,6.8-15.6
		c4.5-4.3,10.4-6.5,17.2-6.5c5.6,0,10.5,1.7,14.4,5.1c3.9,3.4,7.2,8.3,9.9,14.7c3.2,7.5,6.7,13.7,10.4,18.7c3.7,4.9,8.9,9,15.6,12.3
		c6.7,3.2,15.5,4.8,26.6,4.8c15.2,0,27.5-3.3,36.9-9.8c9.4-6.5,14-14.5,14-24.1c0-7.7-2.4-13.8-7.5-18.5c-5.1-4.8-11.6-8.5-19.7-11
		c-8.1-2.6-19.1-5.3-32.8-8.2c-18.4-4-33.8-8.7-46.2-14.1c-12.5-5.4-22.4-12.8-29.8-22.1c-7.4-9.4-11.1-21.1-11.1-34.9
		c0-13.2,3.9-25,11.7-35.2c7.8-10.3,19-18.2,33.7-23.7c14.6-5.5,31.8-8.2,51.5-8.2c15.8,0,29.4,1.8,40.9,5.5
		c11.5,3.7,21.1,8.5,28.8,14.5c7.6,6,13.2,12.4,16.8,19.1c3.6,6.7,5.3,13.3,5.3,19.6c0,5.9-2.3,11.3-6.8,16.1
		c-4.5,4.7-10.2,7.1-16.9,7.1c-6,0-10.8-1.4-14.1-4.3c-3.2-2.9-6.6-7.4-10.2-13.7c-4.6-8.8-10.1-15.7-16.5-20.7
		c-6.2-4.8-16.5-7.3-30.8-7.3c-13.2,0-23.8,2.7-31.8,8c-8,5.4-11.9,11.6-11.9,18.9c0,4.6,1.3,8.4,4,11.7c2.7,3.3,6.4,6.2,11.2,8.7
		c4.8,2.5,9.7,4.4,14.6,5.8c5,1.4,13.2,3.4,24.7,6.2c14.4,3.1,27.5,6.6,39.2,10.3c11.7,3.8,21.7,8.4,30,13.8
		c8.3,5.4,14.8,12.4,19.5,20.8C388.1,166.4,390.4,176.7,390.4,188.7z"/>
</g>
</svg>
