<?xml version="1.0" encoding="utf-8"?>
<!-- Generator: Adobe Illustrator 19.1.0, SVG Export Plug-In . SVG Version: 6.00 Build 0)  -->
<svg version="1.1" id="Capa_1" xmlns="http://www.w3.org/2000/svg" xmlns:xlink="http://www.w3.org/1999/xlink" x="0px" y="0px"
	 viewBox="77 -78 438.5 438.5" style="enable-background:new 77 -78 438.5 438.5;" xml:space="preserve">
<style type="text/css">
	.st0{fill:#FFFFFF;stroke:#362744;stroke-miterlimit:10;}
	.st1{display:none;}
	.st2{display:inline;fill:#362744;}
	.st3{fill:none;stroke:#362744;stroke-width:9;stroke-linecap:round;stroke-miterlimit:10;}
</style>
<rect x="109.8" y="-45.3" class="st0" width="373" height="373"/>
<g class="st1">
	<path class="st2" d="M589.2,8.6c0,4.9-1.8,9.2-5.4,12.8l-29.1,29.1c-3.6,3.6-7.9,5.4-12.9,5.4c-4.9,0-9.2-1.8-12.8-5.4l-87.7-87.7
		l-87.6,87.7c-3.6,3.6-7.9,5.4-12.8,5.4c-5,0-9.2-1.8-12.9-5.4l-29.1-29.1c-3.6-3.6-5.4-7.9-5.4-12.9c0-4.9,1.8-9.2,5.4-12.8
		l129.5-129.6c3.6-3.6,7.9-5.4,12.9-5.4s9.2,1.8,12.8,5.4L583.7-4.3C587.4-0.6,589.2,3.7,589.2,8.6z"/>
</g>
<polyline class="st3" points="184.2,195.2 296.6,87.2 408.2,195.2 "/>
</svg>
