<?xml version="1.0" encoding="utf-8"?>
<!-- Generator: Adobe Illustrator 19.1.0, SVG Export Plug-In . SVG Version: 6.00 Build 0)  -->
<svg version="1.1" id="Capa_1" xmlns="http://www.w3.org/2000/svg" xmlns:xlink="http://www.w3.org/1999/xlink" x="0px" y="0px"
	 viewBox="-99 99.4 84 86.1" style="enable-background:new -99 99.4 84 86.1;" xml:space="preserve">
<style type="text/css">
	.st0{display:none;}
	.st1{display:inline;fill:none;stroke:#FFFFFF;stroke-width:2;stroke-miterlimit:10;}
	.st2{fill:#FFFFFF;}
</style>
<g class="st0">
	<path class="st1" d="M-34.2,126.6c-2,0.9-4,1.4-6,1.6c2.3-1.4,3.8-3.3,4.6-5.8c-2.1,1.2-4.3,2.1-6.6,2.5c-2.1-2.2-4.6-3.3-7.6-3.3
		c-2.9,0-5.4,1-7.4,3.1c-2,2-3.1,4.5-3.1,7.4c0,0.8,0.1,1.6,0.3,2.4c-4.3-0.2-8.3-1.3-12-3.2c-3.7-1.9-6.9-4.5-9.5-7.7
		c-0.9,1.6-1.4,3.4-1.4,5.3c0,1.8,0.4,3.5,1.3,5c0.8,1.5,2,2.8,3.4,3.7c-1.7-0.1-3.3-0.5-4.7-1.3l0,0c0,2.5,0.8,4.7,2.4,6.7
		c1.6,1.9,3.6,3.1,6,3.6c-0.9,0.2-1.8,0.4-2.8,0.4c-0.6,0-1.3-0.1-2-0.2c0.7,2.1,1.9,3.8,3.7,5.2c1.8,1.3,3.8,2,6.1,2.1
		c-3.8,3-8.1,4.5-13,4.5c-0.9,0-1.8,0-2.5-0.1c4.9,3.1,10.2,4.7,16.1,4.7c3.7,0,7.2-0.6,10.5-1.8s6-2.8,8.4-4.7c2.3-2,4.3-4.2,6-6.8
		s2.9-5.2,3.7-8s1.2-5.6,1.2-8.4c0-0.6,0-1.1,0-1.4C-37.4,130.5-35.6,128.7-34.2,126.6z"/>
</g>
<g>
	<g id="youtube">
		<g>
			<path class="st2" d="M-38.7,120h-36.6c-6.7,0-12.2,5.5-12.2,12.2v20.3c0,6.7,5.5,12.2,12.2,12.2h36.6c6.7,0,12.2-5.5,12.2-12.2
				v-20.3C-26.5,125.5-32,120-38.7,120z M-29.2,152.5c0,5.2-4.3,9.5-9.5,9.5h-36.6c-5.2,0-9.5-4.3-9.5-9.5v-20.3
				c0-5.2,4.3-9.5,9.5-9.5h36.6c5.2,0,9.5,4.3,9.5,9.5V152.5z M-65.8,153.8l19.9-11.5l-19.9-11.5V153.8z M-63.1,135.6l11.7,6.8
				l-11.7,6.8V135.6z"/>
		</g>
	</g>
</g>
</svg>
