<?xml version="1.0" encoding="utf-8"?>
<!-- Generator: Adobe Illustrator 19.1.0, SVG Export Plug-In . SVG Version: 6.00 Build 0)  -->
<svg version="1.1" id="Capa_1" xmlns="http://www.w3.org/2000/svg" xmlns:xlink="http://www.w3.org/1999/xlink" x="0px" y="0px"
	 viewBox="-99 99.4 84 86.1" style="enable-background:new -99 99.4 84 86.1;" xml:space="preserve">
<style type="text/css">
	.st0{fill:none;stroke:#362744;stroke-width:2;stroke-miterlimit:10;}
</style>
<g>
	<path class="st0" d="M-20,119.4c-2.9,1.3-5.8,2-8.7,2.3c3.4-2,5.5-4.8,6.7-8.4c-3.1,1.7-6.3,3.1-9.6,3.6c-3.1-3.2-6.7-4.8-11.1-4.8
		c-4.2,0-7.9,1.5-10.8,4.5c-2.9,2.9-4.5,6.6-4.5,10.8c0,1.2,0.1,2.3,0.4,3.5c-6.3-0.3-12.1-1.9-17.5-4.7
		c-5.4-2.8-10.1-6.6-13.8-11.2c-1.3,2.3-2,5-2,7.7c0,2.6,0.6,5.1,1.9,7.3c1.2,2.2,2.9,4.1,5,5.4c-2.5-0.1-4.8-0.7-6.8-1.9l0,0
		c0,3.6,1.2,6.8,3.5,9.8c2.3,2.8,5.2,4.5,8.7,5.2c-1.3,0.3-2.6,0.6-4.1,0.6c-0.9,0-1.9-0.1-2.9-0.3c1,3.1,2.8,5.5,5.4,7.6
		c2.6,1.9,5.5,2.9,8.9,3.1c-5.5,4.4-11.8,6.6-18.9,6.6c-1.3,0-2.6,0-3.6-0.1c7.1,4.5,14.9,6.8,23.5,6.8c5.4,0,10.5-0.9,15.3-2.6
		c4.8-1.7,8.7-4.1,12.2-6.8c3.4-2.9,6.3-6.1,8.7-9.9c2.5-3.8,4.2-7.6,5.4-11.7c1.2-4.1,1.7-8.2,1.7-12.2c0-0.9,0-1.6,0-2
		C-24.7,125.1-22,122.5-20,119.4z"/>
</g>
</svg>
