<?xml version="1.0" encoding="utf-8"?>
<!-- Generator: Adobe Illustrator 19.1.0, SVG Export Plug-In . SVG Version: 6.00 Build 0)  -->
<svg version="1.1" id="Capa_1" xmlns="http://www.w3.org/2000/svg" xmlns:xlink="http://www.w3.org/1999/xlink" x="0px" y="0px"
	 viewBox="-99 99.4 84 86.1" style="enable-background:new -99 99.4 84 86.1;" xml:space="preserve">
<style type="text/css">
	.st0{fill:none;stroke:#FFFFFF;stroke-width:2;stroke-miterlimit:10;}
</style>
<g>
	<path id="LinkedIn" class="st0" d="M-35.4,147.1v16h-9.3v-14.9c0-3.7-1.3-6.3-4.7-6.3c-2.6,0-4.1,1.7-4.8,3.4
		c-0.2,0.6-0.3,1.4-0.3,2.3v15.6h-9.3c0,0,0.1-25.2,0-27.9h9.3v3.9c0,0,0,0.1-0.1,0.1h0.1v-0.1c1.2-1.9,3.4-4.6,8.3-4.6
		C-40,134.6-35.4,138.6-35.4,147.1z M-73.4,121.8c-3.2,0-5.2,2.1-5.2,4.8s2,4.8,5.1,4.8h0.1c3.2,0,5.2-2.1,5.2-4.8
		C-68.2,123.9-70.2,121.8-73.4,121.8z M-78.1,163.1h9.3v-27.9h-9.3C-78.1,135.2-78.1,163.1-78.1,163.1z"/>
</g>
</svg>
