<?xml version="1.0" encoding="utf-8"?>
<!-- Generator: Adobe Illustrator 19.1.0, SVG Export Plug-In . SVG Version: 6.00 Build 0)  -->
<svg version="1.1" id="Capa_1" xmlns="http://www.w3.org/2000/svg" xmlns:xlink="http://www.w3.org/1999/xlink" x="0px" y="0px"
	 viewBox="254 -254.5 792 792" style="enable-background:new 254 -254.5 792 792;" xml:space="preserve">
<style type="text/css">
	.st0{fill:#362744;}
</style>
<g>
	<path class="st0" d="M776,537.5c0,0,72,0,72-72v-648c0-72-72-72-72-72H524c0,0-72,0-72,72v648c0,72,72,72,72,72H776z M468-182.5
		c0-32.9,25.4-45.5,36.1-50.8c7.6-3.8,16-5.2,19.9-5.2h252c3.9,0,12.3,1.4,19.9,5.2c10.7,5.4,36.1,20.6,36.1,50.8v28H468V-182.5z
		 M468-138.5h364v506H468V-138.5z M468,465.5v-82h364v82c0,17.4-4,39.1-36.1,50.8c-7.6,3.8-16,5.2-19.9,5.2H524
		c-3.9,0-12.3-1.4-19.9-5.2C477.3,504.6,468,482.8,468,465.5z"/>
	<path class="st0" d="M699.2-200.5h-98.4c-2.7,0-4.8,3.5-4.8,8v2.1c0,4.4,2.2,8,4.8,8h98.4c2.7,0,4.8-3.5,4.8-8v-2.1
		C704-197,701.8-200.5,699.2-200.5z"/>
	<path class="st0" d="M650,489c-22.9,0-41.5-18.6-41.5-41.5S627.1,406,650,406c22.9,0,41.5,18.6,41.5,41.5S672.9,489,650,489z
		 M650,417c-16.8,0-30.5,13.7-30.5,30.5S633.2,478,650,478c16.8,0,30.5-13.7,30.5-30.5S666.8,417,650,417z"/>
</g>
</svg>
