<?xml version="1.0" encoding="utf-8"?>
<!-- Generator: Adobe Illustrator 16.0.0, SVG Export Plug-In . SVG Version: 6.00 Build 0)  -->
<!DOCTYPE svg PUBLIC "-//W3C//DTD SVG 1.1//EN" "http://www.w3.org/Graphics/SVG/1.1/DTD/svg11.dtd">
<svg version="1.1" id="Capa_1" xmlns="http://www.w3.org/2000/svg" xmlns:xlink="http://www.w3.org/1999/xlink" x="0px" y="0px"
	 width="438.533px" height="438.533px" viewBox="0 0 438.533 438.533" enable-background="new 0 0 438.533 438.533"
	 xml:space="preserve">
<g>
	<path fill="#FFFFFF" stroke="#362744" stroke-width="20" stroke-miterlimit="10" d="M367.167,246.667
		c0,4.949-1.811,9.239-5.431,12.85l-29.12,29.13c-3.619,3.61-7.899,5.42-12.85,5.42c-4.94,0-9.23-1.81-12.84-5.42l-87.66-87.65
		l-87.64,87.65c-3.62,3.61-7.9,5.42-12.85,5.42c-4.95,0-9.23-1.81-12.85-5.42l-29.12-29.13c-3.62-3.61-5.43-7.9-5.43-12.85
		c0-4.94,1.81-9.221,5.43-12.841l129.62-129.62c3.62-3.62,7.9-5.42,12.85-5.42c4.95,0,9.24,1.8,12.84,5.42l129.62,129.62
		C365.356,237.446,367.167,241.727,367.167,246.667z"/>
</g>
</svg>
