<?xml version="1.0" encoding="utf-8"?>
<!-- Generator: Adobe Illustrator 19.1.0, SVG Export Plug-In . SVG Version: 6.00 Build 0)  -->
<svg version="1.1" id="Capa_1" xmlns="http://www.w3.org/2000/svg" xmlns:xlink="http://www.w3.org/1999/xlink" x="0px" y="0px"
	 viewBox="164 -164.5 612 612" style="enable-background:new 164 -164.5 612 612;" xml:space="preserve">
<style type="text/css">
	.st0{fill:#362744;}
</style>
<g>
	<path class="st0" d="M722.3,356.1H217.7c-29.6,0-53.7-24.1-53.7-53.7V-19.4c0-16,4.5-26.2,13.5-30.3c19.1-8.9,49.5,15.7,53.9,19.3
		l238.3,165.3L681.3-12.2c2.4-1.7,5.8-1.1,7.5,1.4c1.7,2.4,1.1,5.8-1.4,7.5L472.8,145.9c-1.8,1.3-4.3,1.3-6.2,0L225-21.6
		c-0.1-0.1-0.3-0.2-0.4-0.3c-11.1-9.5-32.6-22.6-42.5-18c-6,2.8-7.3,12.7-7.3,20.5v321.7c0,23.7,19.3,42.9,42.9,42.9h504.6
		c23.7,0,42.9-19.3,42.9-42.9V-19.4c0-23.7-19.3-42.9-42.9-42.9H288.7c-3,0-5.4-2.4-5.4-5.4s2.4-5.4,5.4-5.4h433.6
		c29.6,0,53.7,24.1,53.7,53.7v321.7C776,332,751.9,356.1,722.3,356.1z"/>
</g>
</svg>
