<?xml version="1.0" encoding="utf-8"?>
<!-- Generator: Adobe Illustrator 19.1.0, SVG Export Plug-In . SVG Version: 6.00 Build 0)  -->
<svg version="1.1" id="Capa_1" xmlns="http://www.w3.org/2000/svg" xmlns:xlink="http://www.w3.org/1999/xlink" x="0px" y="0px"
	 viewBox="73 -73.6 430.1 430.1" style="enable-background:new 73 -73.6 430.1 430.1;" xml:space="preserve">
<style type="text/css">
	.st0{display:none;}
	.st1{display:inline;}
	.st2{fill:#FFFFFF;}
</style>
<g class="st0">
	<g class="st1">
		<path class="st2" d="M382.2,268.8H319c-3,0-4.9-2.5-4.9-5.5v-75.9H262v75.9c0,3-2.5,5.5-5.5,5.5h-62.5c-3,0-5.5-2.5-5.5-5.5V152.5
			c0-3,0.5-5.5,3.6-5.5c3,0,3.6,2.5,3.6,5.5v109.2h59.4v-75.9c0-3,2.5-5.5,5.5-5.5h55.4c3,0,5.5,2.5,5.5,5.5v75.9h59.4V158
			c0-3,0.5-5.5,3.6-5.5c3,0,3.6,2.5,3.6,5.5v105.3C387.8,266.4,385.3,268.8,382.2,268.8z M411.5,147.6L288.1,20.8L164.6,147.6
			c-2.2,2.2-5.7,5.5-7.9,3.3c-2.2-2.2,1.1-5.7,3.3-7.9L284.2,15.6c2.2-2.2,5.7-2.2,7.9,0L416.1,143c2.2,2.2,5.5,5.7,3.3,7.9
			C416.7,152.6,412.7,148.7,411.5,147.6z M373.2,74.9c-3,0-3.6-2.5-3.6-5.5V32.2h-37.2c-3,0-5.5-0.5-5.5-3.6s2.5-3.6,5.5-3.6h38.8
			c3,0,5.5,2.5,5.5,5.5v38.8C376.7,72.5,376.2,74.9,373.2,74.9z"/>
	</g>
</g>
<g class="st0">
	<g class="st1">
		<g>
			<path class="st2" d="M411,132.5l-39-39v-45c0-8.1-6.6-14.7-14.8-14.7c-8.1,0-14.7,6.6-14.7,14.7v15.5l-29-29
				c-14.4-14.3-39.3-14.3-53.6,0l-97.5,97.5c-5.8,5.8-5.8,15.1,0,20.9c5.8,5.8,15.1,5.8,20.9,0l97.5-97.5c3.2-3.2,8.8-3.2,11.9,0
				l97.5,97.5c2.9,2.9,6.7,4.3,10.4,4.3c3.8,0,7.6-1.4,10.4-4.3C416.8,147.6,416.8,138.3,411,132.5z"/>
			<path class="st2" d="M291.8,83.9c-2.8-2.8-7.4-2.8-10.2,0l-85.7,85.7c-1.4,1.4-2.1,3.2-2.1,5.1v62.5c0,14.7,11.9,26.6,26.6,26.6
				h42.4v-65.7h47.9v65.7h42.4c14.7,0,26.6-11.9,26.6-26.6v-62.5c0-1.9-0.8-3.8-2.1-5.1L291.8,83.9z"/>
		</g>
	</g>
</g>
<g>
	<g>
		<g>
			<g>
				<path class="st2" d="M404.1,132.2l-112-97.1c-2.8-2.4-7-2.4-9.8,0l-39.9,34.6v-14c0-8.2-6.7-14.9-14.9-14.9s-14.9,6.7-14.9,14.9
					v39.9l-42.2,36.6c-3.1,2.7-3.4,7.4-0.7,10.5c2.7,3.1,7.4,3.4,10.5,0.7l107.1-92.8l107.1,92.8c1.4,1.2,3.2,1.8,4.9,1.8
					c2.1,0,4.2-0.9,5.6-2.6C407.6,139.6,407.2,134.9,404.1,132.2z"/>
				<path class="st2" d="M296.7,89c-2.7-2.3-6.1-3.4-9.5-3.4c-3.4,0-6.7,1.1-9.5,3.4l-74.7,61.2c-3.5,2.8-5.5,7.1-5.5,11.6v73.2
					c0,8.2,6.7,14.9,14.9,14.9h44.8v-74.7h59.7v74.7h44.8c8.2,0,14.9-6.7,14.9-14.9v-73.2c0-4.5-2-8.7-5.5-11.5L296.7,89z"/>
			</g>
		</g>
	</g>
</g>
</svg>
