<?xml version="1.0" encoding="utf-8"?>
<!-- Generator: Adobe Illustrator 19.1.0, SVG Export Plug-In . SVG Version: 6.00 Build 0)  -->
<svg version="1.1" id="Capa_1" xmlns="http://www.w3.org/2000/svg" xmlns:xlink="http://www.w3.org/1999/xlink" x="0px" y="0px"
	 viewBox="0 0 84 86.1" style="enable-background:new 0 0 84 86.1;" xml:space="preserve">
<style type="text/css">
	.st0{display:none;}
	.st1{display:inline;fill:none;stroke:#362744;stroke-width:2;stroke-miterlimit:10;}
</style>
<g class="st0">
	<path class="st1" d="M67.5,27.3c-2,0.9-4,1.4-6,1.6c2.3-1.4,3.8-3.3,4.6-5.8c-2.1,1.2-4.3,2.1-6.6,2.5c-2.1-2.2-4.6-3.3-7.6-3.3
		c-2.9,0-5.4,1-7.4,3.1c-2,2-3.1,4.5-3.1,7.4c0,0.8,0.1,1.6,0.3,2.4c-4.3-0.2-8.3-1.3-12-3.2c-3.7-1.9-6.9-4.5-9.5-7.7
		c-0.9,1.6-1.4,3.4-1.4,5.3c0,1.8,0.4,3.5,1.3,5c0.8,1.5,2,2.8,3.4,3.7c-1.7-0.1-3.3-0.5-4.7-1.3V37c0,2.5,0.8,4.7,2.4,6.7
		c1.6,1.9,3.6,3.1,6,3.6c-0.9,0.2-1.8,0.4-2.8,0.4c-0.6,0-1.3-0.1-2-0.2c0.7,2.1,1.9,3.8,3.7,5.2c1.8,1.3,3.8,2,6.1,2.1
		c-3.8,3-8.1,4.5-13,4.5c-0.9,0-1.8,0-2.5-0.1c4.9,3.1,10.2,4.7,16.1,4.7c3.7,0,7.2-0.6,10.5-1.8c3.3-1.2,6-2.8,8.4-4.7
		c2.3-2,4.3-4.2,6-6.8c1.7-2.6,2.9-5.2,3.7-8c0.8-2.8,1.2-5.6,1.2-8.4c0-0.6,0-1.1,0-1.4C64.3,31.2,66.1,29.4,67.5,27.3z"/>
</g>
<g class="st0">
	<path id="LinkedIn" class="st1" d="M63.6,47.7v16h-9.3V48.8c0-3.7-1.3-6.3-4.7-6.3c-2.6,0-4.1,1.7-4.8,3.4
		c-0.2,0.6-0.3,1.4-0.3,2.3v15.6h-9.3c0,0,0.1-25.2,0-27.9h9.3v3.9c0,0,0,0.1-0.1,0.1h0.1v-0.1c1.2-1.9,3.4-4.6,8.3-4.6
		C59,35.2,63.6,39.2,63.6,47.7z M25.6,22.4c-3.2,0-5.2,2.1-5.2,4.8c0,2.7,2,4.8,5.1,4.8h0.1c3.2,0,5.2-2.1,5.2-4.8
		C30.8,24.5,28.8,22.4,25.6,22.4z M20.9,63.7h9.3V35.8h-9.3V63.7z"/>
</g>
<g class="st0">
	<path id="Behance" class="st1" d="M65,29.7h-15V26h15V29.7L65,29.7z M42.2,45c1,1.5,1.4,3.3,1.4,5.4c0,2.2-0.5,4.2-1.7,5.9
		c-0.7,1.2-1.6,2.1-2.6,2.9c-1.2,0.9-2.6,1.5-4.2,1.9c-1.6,0.3-3.4,0.5-5.2,0.5H13.2V24.5h17.9c4.5,0.1,7.7,1.4,9.6,4
		c1.1,1.6,1.7,3.5,1.7,5.7c0,2.3-0.6,4.1-1.7,5.5c-0.6,0.8-1.6,1.5-2.8,2.1C39.8,42.4,41.2,43.5,42.2,45z M21.7,39.1h7.9
		c1.6,0,2.9-0.3,3.9-0.9c1-0.6,1.5-1.7,1.5-3.3c0-1.7-0.7-2.9-2-3.4c-1.1-0.4-2.6-0.6-4.4-0.6h-6.9V39.1z M35.8,49.9
		c0-1.9-0.8-3.3-2.4-4c-0.9-0.4-2.1-0.6-3.7-0.6h-8v9.9h7.8c1.6,0,2.9-0.2,3.8-0.7C35,53.7,35.8,52.2,35.8,49.9z M70.6,43.8
		c0.2,1.2,0.3,3,0.2,5.3H51.4c0.1,2.7,1,4.5,2.8,5.6c1.1,0.7,2.3,1,3.8,1c1.6,0,2.9-0.4,3.9-1.2c0.5-0.4,1-1.1,1.4-1.8h7.1
		c-0.2,1.6-1,3.2-2.6,4.8c-2.4,2.6-5.7,3.9-10,3.9c-3.5,0-6.7-1.1-9.4-3.3c-2.7-2.2-4.1-5.7-4.1-10.7c0-4.6,1.2-8.2,3.7-10.6
		c2.5-2.5,5.6-3.7,9.5-3.7c2.3,0,4.4,0.4,6.3,1.2c1.9,0.8,3.4,2.1,4.6,3.9C69.6,39.9,70.3,41.7,70.6,43.8z M63.6,44.5
		c-0.1-1.8-0.7-3.2-1.9-4.2c-1.1-1-2.5-1.4-4.1-1.4c-1.8,0-3.2,0.5-4.2,1.5c-1,1-1.6,2.4-1.9,4.1H63.6z"/>
</g>
</svg>
