<?xml version="1.0" encoding="utf-8"?>
<!-- Generator: Adobe Illustrator 19.1.0, SVG Export Plug-In . SVG Version: 6.00 Build 0)  -->
<svg version="1.1" id="Capa_1" xmlns="http://www.w3.org/2000/svg" xmlns:xlink="http://www.w3.org/1999/xlink" x="0px" y="0px"
	 viewBox="342 -343.2 967.7 967.7" style="enable-background:new 342 -343.2 967.7 967.7;" xml:space="preserve">
<style type="text/css">
	.st0{fill:#E50051;}
	.st1{fill:none;stroke:#FFFFFF;stroke-width:9;stroke-miterlimit:10;}
</style>
<circle class="st0" cx="825.8" cy="140.6" r="466.6"/>
<g>
	<path class="st1" d="M590.2,427l78.2,19.7c1.1,0.3,2.2,0.4,3.2,0.4c5.9,0,11-3.8,12.7-9.4l45.5-146.5l22.7-162.1l0.1-0.5
		c3.1-12.2-4.3-24.6-16.5-27.7c-4.9-1.3-9.8-0.8-14.1,1c-6.5,2.7-11.7,8.3-13.6,15.5l-4.9,20l-4.8,19.7l-6.2,25.3l-7.1,28.9
		l-0.1,0.3l-0.2-0.1l-0.1-0.1v0.6l-9.4,37.1c-0.9,3.5-3.4,6.3-6.8,7.4c-1.2,0.4-2.4,0.6-3.6,0.6c-2.3,0-4.5-0.7-6.4-2.1
		c-1.7-1.3-16.4-12.7-16.6-28.7c-0.1-6.1,2-15.2,12.4-23.4c0.2-0.1,0.4-0.3,0.6-0.4l11-7.6l12.2-44.8c-12.3-2.7-33.9-6.7-53.5-6.7
		c-19.2,0-32.1,3.9-36.3,11.1c-2.6,4.4-8.8,24.7-10,116.4c-0.7,55.1,0.6,113.7,1.5,143.7C580.3,420.4,584.4,425.5,590.2,427z"/>
	<path class="st1" d="M691.3,105.2c2.9-6.3,7.1-11.6,12.2-15.8c1-0.7,1.9-1.5,2.9-2.1c4.7-3.2,9.9-5.4,15.5-6.6v-9V61.6v-231.2
		c0-5.2,4.2-9.3,9.3-9.3h306.8c5.2,0,9.3,4.2,9.3,9.3v310.1h-54.3c-22.8,0-41.3,18.5-41.3,41.3V236h-151h-12.1h-17.2h-16v0.1
		l-1.3,9.1l-1.3,9.2l-2.7,18.4h4.4h208.6c12.2,0,24.2-5,32.8-13.6l74.8-75.4c8.6-8.7,13.4-20.3,13.4-32.5v-321
		c0-25.4-20.7-46.1-46.1-46.1H731.3c-25.4,0-46.1,20.7-46.1,46.1v295.4l3.6-13.2C689.4,110,690.3,107.5,691.3,105.2z M988.8,214.3
		v-32.6c0-2.4,2-4.4,4.4-4.4h32.3L988.8,214.3z"/>
	<path class="st1" d="M580,480.4l68.7,16.1c8.7,2.1,17.4-3.3,19.4-12l1-4.4c1.4-5.8-0.6-11.6-4.6-15.5c-2-1.9-4.5-3.3-7.4-4
		l-68.7-16.1c-1.7-0.4-3.4-0.5-5-0.4c-6.8,0.6-12.7,5.4-14.4,12.4l-1,4.4C565.9,469.7,571.3,478.4,580,480.4z"/>
	<path class="st1" d="M805.9-119.9c3.7-2.6,8.3-3.9,14.1-3.9c4.8,0,8.5,1,11.3,3.2c2.9,2.2,5.2,6,7,11.6c1.5,4.6,6.2,7.3,10.9,6.2
		l13.2-3.1c2.4-0.6,4.6-2.1,5.8-4.3s1.6-4.8,0.9-7.2c-3.2-11.3-9.3-20.2-17.8-26.6c-8.5-6.3-18.9-9.6-31.1-9.6
		c-10.5,0-20.2,2.4-29,7.2c-9.1,4.9-16.1,12.3-21,21.7c-4.7,9.1-7.1,19.8-7.1,31.8c0,10.8,2.1,21.2,6.1,30.7
		c4.3,10.1,10.7,18,19.1,23.4c8.3,5.4,19,8.2,31.7,8.2c12.6,0,23.6-3.6,32.5-10.7c8.9-7,15-17.2,18.3-30.1c0.6-2.4,0.2-4.9-1-7
		c-1.3-2.1-3.3-3.6-5.7-4.2L850.9-86c-2.4-0.6-5-0.2-7.1,1.1c-2.1,1.3-3.6,3.5-4.1,5.9c-1.4,6.4-3.9,11.2-7.4,14.1
		c-3.5,2.9-7.8,4.3-13.2,4.3c-4.5,0-8.6-1.1-12.5-3.5c-3.5-2.1-6.1-5.4-7.9-9.9c-2.1-5.3-3.2-11.8-3.2-19.2c0-5.7,0.9-11.2,2.7-16.5
		C799.7-113.9,802.3-117.3,805.9-119.9z"/>
	<path class="st1" d="M946.8-32.3h13.8c3.8,0,7.2-2.4,8.5-5.8l39.6-101.2c1.1-2.8,0.7-6-1-8.5c-1.7-2.5-4.6-4.1-7.6-4.1h-13.7
		c-3.8,0-7.3,2.4-8.6,6l-24,64.7l-23.1-64.5c-1.3-3.7-4.8-6.1-8.7-6.1h-14.5c-3,0-5.9,1.5-7.6,4c-1.7,2.5-2.1,5.7-1,8.5l39.2,101.2
		C939.6-34.6,943-32.3,946.8-32.3z"/>
	<path class="st1" d="M778,28.3h213.3c10.2,0,18.4-8.3,18.4-18.4s-8.3-18.4-18.4-18.4H778c-10.2,0-18.4,8.3-18.4,18.4
		S767.8,28.3,778,28.3z"/>
	<path class="st1" d="M774.3,94.4c1.2,0.2,2.4,0.4,3.8,0.4h5.9h207.5c10.2,0,18.4-8.3,18.4-18.4s-8.3-18.4-18.4-18.4H778
		c-6,0-11.3,2.9-14.7,7.4c-1.8,2.5-3.1,5.5-3.5,8.7c-0.1,0.7-0.1,1.5-0.1,2.4C759.6,85.2,765.9,92.6,774.3,94.4z"/>
</g>
</svg>
