<?xml version="1.0" encoding="utf-8"?>
<!-- Generator: Adobe Illustrator 19.1.0, SVG Export Plug-In . SVG Version: 6.00 Build 0)  -->
<svg version="1.1" id="Capa_1" xmlns="http://www.w3.org/2000/svg" xmlns:xlink="http://www.w3.org/1999/xlink" x="0px" y="0px"
	 viewBox="134 65.5 551 153" style="enable-background:new 134 65.5 551 153;" xml:space="preserve">
<style type="text/css">
	.st0{fill:#FFFFFF;}
</style>
<path class="st0" d="M317.3,87.1c13.2,0,20.8,6.6,20.8,17.9c0,11.8-7.6,18.6-20.8,18.6h-14v16.9h-6.1V87.1H317.3z M303.3,117.7H317
	c9.6,0,15.2-4.3,15.2-12.6c0-8.1-5.6-12.2-15.2-12.2h-13.7V117.7z"/>
<path class="st0" d="M355.3,126.9l-5.9,13.5h-6.5L366.8,87h6.3l23.9,53.4h-6.6l-5.9-13.5H355.3z M369.8,94l-11.9,27.1h24L369.8,94z"
	/>
<path class="st0" d="M422,92.9v47.5h-6.1V92.9h-17.4V87h41v5.9H422z"/>
<path class="st0" d="M477.6,123.4c-1.1,0.1-2.4,0.2-3.6,0.2h-14.2v16.9h-6.1V87.1H474c13.3,0,21.1,6.6,21.1,17.9
	c0,8.8-4.3,14.8-12,17.3l12.5,18.2h-6.9L477.6,123.4z M474,117.7c9.7,0,15.2-4.3,15.2-12.6c0-8.1-5.5-12.2-15.2-12.2h-14.2v24.8
	C459.8,117.7,474,117.7,474,117.7z"/>
<path class="st0" d="M514.2,140.4V87.1h6.1v53.4h-6.1V140.4z"/>
<path class="st0" d="M584.1,94.7l-3.7,4.7c-4.1-4.2-9.9-6.7-15.8-6.7c-12.1,0-21.7,9.3-21.7,21.1c0,11.7,9.7,21.1,21.7,21.1
	c5.9,0,11.6-2.4,15.8-6.4l3.7,4.2c-5.3,5-12.4,8.2-19.8,8.2c-15.4,0-27.6-12-27.6-27.1c0-15,12.4-26.8,27.8-26.8
	C571.9,86.9,579,89.9,584.1,94.7z"/>
<path class="st0" d="M600.5,140.4V87.1h6.1v53.4h-6.1V140.4z"/>
<path class="st0" d="M632.8,126.9l-5.9,13.5h-6.5L644.3,87h6.3l23.9,53.4h-6.6l-5.9-13.5H632.8z M647.3,94l-11.9,27.1h23.9L647.3,94
	z"/>
<path class="st0" d="M315.9,174.5v10.3c-2.6,2.3-6.3,3.7-10.1,3.7c-8.1,0-14.7-6.4-14.7-14.3c0-7.9,6.6-14.2,14.8-14.2
	c3.8,0,7.4,1.4,10,3.7l-1,1.3c-2.4-2.1-5.6-3.4-9-3.4c-7.2,0-13.1,5.7-13.1,12.6c0,7,5.9,12.7,13.1,12.7c3.1,0,6.1-1.1,8.5-2.9v-9.5
	H315.9z"/>
<path class="st0" d="M347.3,176.8c0,7.4-4.2,11.7-11.5,11.7c-7.3,0-11.5-4.3-11.5-11.7V160h1.7v16.8c0,6.3,3.6,10,9.8,10
	c6.2,0,9.8-3.7,9.8-10V160h1.7V176.8z"/>
<path class="st0" d="M356.4,188.5V160h1.7v28.5H356.4z"/>
<path class="st0" d="M382.2,186.8v1.7h-14.4V160h1.7v26.8H382.2z"/>
<path class="st0" d="M402.6,186.8v1.7h-14.4V160h1.7v26.8H402.6z"/>
<path class="st0" d="M408.6,188.5V160h1.7v28.5H408.6z"/>
<path class="st0" d="M440.7,188.5l-19-25.8v25.8H420V160h2l19,25.8V160h1.7v28.5H440.7z"/>
<path class="st0" d="M475.9,160c5.6,0,8.9,2.6,8.9,7c0,3.5-2,5.9-5.5,6.6c4.4,0.5,6.9,3.2,6.9,7.2c0,4.8-3.7,7.6-10.2,7.6h-11.7V160
	H475.9z M466,172.9h9.9c4.6,0,7.2-2,7.2-5.7c0-3.5-2.6-5.6-7.2-5.6H466V172.9z M466,186.8h9.9c5.5,0,8.6-2.2,8.6-6.2
	c0-3.8-3.1-6-8.6-6H466V186.8z"/>
<path class="st0" d="M494.8,180.4l-3.7,8.1h-1.9l12.9-28.4h1.8l13,28.4H515l-3.7-8.1H494.8z M503,162l-7.5,16.7h15.1L503,162z"/>
<path class="st0" d="M534.6,178.8c-0.8,0.1-1.5,0.2-2.4,0.2h-8.3v9.5h-1.7V160h10.1c7,0,11,3.4,11,9.4c0,4.8-2.5,8-7,9.2l7.1,9.9h-2
	L534.6,178.8z M532.3,177.3c5.9,0,9.3-2.8,9.3-7.9c0-5-3.4-7.7-9.3-7.7h-8.4v15.6H532.3z"/>
<path class="st0" d="M564,178.8c-0.8,0.1-1.5,0.2-2.4,0.2h-8.3v9.5h-1.7V160h10.1c7,0,11,3.4,11,9.4c0,4.8-2.5,8-7,9.2l7.1,9.9h-2
	L564,178.8z M561.7,177.3c5.9,0,9.3-2.8,9.3-7.9c0-5-3.4-7.7-9.3-7.7h-8.4v15.6H561.7z"/>
<path class="st0" d="M582.6,161.7v11.4h14.8v1.7h-14.8v12h17.2v1.7h-18.9V160h18.4v1.7H582.6z"/>
<path class="st0" d="M607.2,188.5V160h1.7v28.5H607.2z"/>
<path class="st0" d="M631.2,178.8c-0.8,0.1-1.5,0.2-2.4,0.2h-8.3v9.5h-1.7V160h10.1c7,0,11,3.4,11,9.4c0,4.8-2.5,8-7,9.2l7.1,9.9h-2
	L631.2,178.8z M628.8,177.3c5.9,0,9.3-2.8,9.3-7.9c0-5-3.4-7.7-9.3-7.7h-8.4v15.6H628.8z"/>
<path class="st0" d="M674.5,174.2c0,7.9-6.6,14.3-14.7,14.3c-8.1,0-14.7-6.4-14.7-14.3c0-7.9,6.6-14.2,14.7-14.2
	S674.5,166.3,674.5,174.2z M646.8,174.2c0,7,5.9,12.6,13,12.6s13-5.7,13-12.6c0-6.9-5.9-12.6-13-12.6
	C652.7,161.7,646.8,167.3,646.8,174.2z"/>
<polygon class="st0" points="200.9,137.6 211.4,147.9 200.8,157.2 "/>
<path class="st0" d="M242.3,139.9c0.1,0.1,0.2,0.3,0.2,0.4c0,0.1,0,0.2-0.2,0.4L200.6,182l0.1-19.5l13.3-11.6
	c0.9-0.7,1.4-1.8,1.4-2.9c0-1.1-0.4-2.2-1.2-3l-10.5-10.3c-1.2-1.1-2.9-1.5-4.4-0.8s-2.5,2.1-2.5,3.7l-0.1,17.8L170.5,129
	c-0.3-0.3-0.3-0.8,0-1.2l29.9-29.9L242.3,139.9z"/>
<path class="st0" d="M206.3,79.7c-33.4,0-60.4,27-60.4,60.4s27,60.4,60.4,60.4s60.4-27,60.4-60.4S239.7,79.7,206.3,79.7z
	 M245.1,143.5l-42,41.7c-0.7,0.7-1.7,1.1-2.7,1.1c-0.5,0-1-0.1-1.5-0.3c-1.4-0.6-2.3-2-2.3-3.5l0.1-21.4l-29.1-29.3
	c-1.9-1.9-1.9-4.9,0-6.8l30-29.9c0.8-0.8,1.7-1.2,2.8-1.2c1,0,2,0.4,2.8,1.2l41.9,41.9c0.9,0.9,1.3,2,1.3,3.2
	C246.5,141.5,246,142.6,245.1,143.5z"/>
</svg>
