<?xml version="1.0" encoding="utf-8"?>
<!-- Generator: Adobe Illustrator 16.0.0, SVG Export Plug-In . SVG Version: 6.00 Build 0)  -->
<!DOCTYPE svg PUBLIC "-//W3C//DTD SVG 1.1//EN" "http://www.w3.org/Graphics/SVG/1.1/DTD/svg11.dtd">
<svg version="1.1" xmlns="http://www.w3.org/2000/svg" xmlns:xlink="http://www.w3.org/1999/xlink" x="0px" y="0px"
	 width="616.832px" height="616.832px" viewBox="0 0 616.832 616.832" enable-background="new 0 0 616.832 616.832"
	 xml:space="preserve">
<g id="Capa_1">
	<g>
		<g id="skype">
			<g>
				<path d="M385.649,263.005c-0.479-0.131-0.957-0.247-1.451-0.334C313.239,249.991,271.586,231,271.47,231
					c-9.213-5.223-14.537-10.765-14.987-15.61c-0.479-5.194,4.367-11.447,7.428-14.393c17.772-9.01,34.414-13.58,49.501-13.58
					c32.979,0,48.486,21.922,49.141,22.852c21.588,31.918,43.741,48.108,65.853,48.108c14.812,0,23.634-7.441,24.998-8.705
					c14.565-12.781,22.284-28.406,22.313-45.208c0.058-32.18-27.175-57.162-29.988-59.644
					c-32.702-30.496-76.241-45.962-129.37-45.962c-49.561,0-89.196,13.812-90.647,14.319
					c-85.308,28.653-92.345,102.195-84.146,137.088c0.13,0.551,0.29,1.088,0.479,1.609c31.483,87.121,163.522,98.396,169.122,98.83
					c60.412,4.773,63.229,32.964,63.329,34.572c2.104,29.408-50.634,38.49-58.788,39.709c-52.722-2.973-65.388-23.11-65.417-23.11
					l0,0c-0.421-0.855-0.914-1.669-1.479-2.423c-28.974-38.315-40.275-51.592-65.593-52.26l-1.958-0.029
					c-20.312,0-32.31,8.562-38.795,15.759c-16.48,18.25-14.334,44.655-14.044,47.6c0.073,0.639,0.175,1.277,0.319,1.902
					c23.459,98.133,148.637,100.961,162.84,100.961c0.029,0,0.174,0,0.35,0c7.646,0.451,14.986,0.668,22.052,0.668
					c167.207,0,178.668-122.158,178.728-123.117C499.989,316.105,425.866,274.524,385.649,263.005z M463.849,388.371
					c-0.377,4.136-11.954,105.548-170.63,96.06c-0.29-0.029-1.32-0.029-1.61-0.029c-11.795,0-115.297-2.19-134.346-77.561
					c-0.146-3.338-0.232-16.742,6.745-24.447c3.759-4.164,10.012-6.398,18.47-6.166c10.488,0.275,15.029,3.525,42.609,39.971
					c4.498,7.588,25.027,34.56,90.517,37.853c0.812,0.043,1.582,0.016,2.365-0.072c33.354-3.787,88.905-22.951,85.525-69.959
					c-0.044-2.248-1.9-55.262-90.053-62.225c-1.176-0.089-117.966-9.982-143.791-78.927c-1.741-8.415-13.028-75.863,65.519-102.253
					c0.363-0.131,36.562-12.738,81.202-12.738c45.557,0,82.421,12.84,109.843,38.403c5.729,5.122,20.587,21.995,20.515,38.229
					c-0.044,8.415-4.106,16.046-12.245,23.198c-0.087,0.059-2.22,1.654-6.05,1.654c-5.397,0-20.239-3.438-41.74-35.241
					c-0.973-1.465-24.243-35.719-73.237-35.719c-20.238,0-41.929,5.949-64.46,17.657c-0.885,0.464-1.712,1.001-2.466,1.625
					c-2.133,1.741-20.805,17.656-18.919,40.071c1.277,15.117,11.229,28.06,30.583,38.998c1.812,0.856,44.946,20.819,120.128,34.342
					C387.304,293.82,470.363,321.009,463.849,388.371z M601.329,361.503c4.569-25.769,21.907-156.574-75.632-252.487
					c-7.398-8.618-80.593-89.574-215.331-89.574c-15.175,0-30.743,1.059-46.354,3.147C251.652,16.089,216.629,0,172.858,0
					c-47.166,0-89.08,18.208-124.742,54.305c-0.812,0.855-80.927,86.41-27.13,196.63c-4.033,18.526-13.362,78.896,14.741,152.423
					c1.552,5.541,39.418,136.246,182.47,178.887c1.944,0.74,48.225,18.136,112.119,18.136c9.938,0,19.876-0.437,29.611-1.277
					c11.012,4.963,43.161,17.729,82.711,17.729c47.282,0,89.485-18.629,121.637-53.463
					C567.597,560.048,644.419,481.367,601.329,361.503z M543.354,543.26c-27.304,29.567-61.195,44.555-100.716,44.555
					c-40.769,0-73.165-16.277-73.455-16.424c-2.062-1.06-4.338-1.609-6.646-1.609c-0.479,0-0.958,0.029-1.451,0.072
					c-10.054,1.002-20.413,1.51-30.771,1.51c-58.25,0-101.34-16.061-102.776-16.584C99.2,516.509,64.018,396.771,63.263,394.305
					c-29.989-78.621-13.146-140.557-12.985-141.122c1.03-3.583,0.638-7.414-1.074-10.722C0.312,148.637,66.281,77.329,68.921,74.529
					c29.844-30.192,64.822-45.513,103.938-45.513c45.266,0,80.521,20.818,80.84,21.008c2.887,1.755,6.34,2.452,9.633,1.944
					c15.843-2.337,31.671-3.525,47.006-3.525c125.178,0,192.901,78.954,193.541,79.723c0.318,0.377,0.652,0.754,1.016,1.104
					c95.246,93.187,67.507,229.041,67.217,230.406c-0.581,2.727-0.378,5.584,0.609,8.196
					C612.138,471.951,546.531,540.039,543.354,543.26z"/>
			</g>
		</g>
	</g>
	<g>
		<path d="M950.595,631.718H698.399c-24.361,0-44.185-19.816-44.185-44.182V56.465c0-24.362,19.823-44.185,44.185-44.185h252.203
			c24.37,0,44.193,19.823,44.193,44.185v531.059C994.796,611.889,974.968,631.718,950.595,631.718z M698.399,18.641
			c-20.852,0-37.823,16.972-37.823,37.824v531.059c0,20.854,16.972,37.825,37.823,37.825h252.203
			c20.861,0,37.832-16.971,37.832-37.825V56.465c0-20.852-16.971-37.824-37.832-37.824H698.399z M853.131,610.906h-57.248
			c-10.814,0-19.618-8.796-19.618-19.617c0-10.81,8.804-19.606,19.618-19.606h57.248c10.811,0,19.619,8.797,19.619,19.606
			C872.75,602.11,863.941,610.906,853.131,610.906z M795.876,578.044c-7.308,0-13.256,5.951-13.256,13.245
			c0,7.305,5.948,13.256,13.256,13.256h57.255c7.3,0,13.258-5.951,13.258-13.256c0-7.294-5.958-13.245-13.258-13.245H795.876z
			 M977.427,565.072H671.582V78.916h305.845V565.072z M677.943,558.712h293.122V85.278H677.943V558.712z M866.252,53.495h-83.493
			c-2.851,0-5.171-2.317-5.171-5.171c0-2.858,2.313-5.172,5.171-5.172h83.493c2.852,0,5.168,2.314,5.168,5.172
			C871.42,51.178,869.103,53.495,866.252,53.495z M782.759,46.339c-1.093,0-1.99,0.897-1.99,1.991s0.897,1.991,1.99,1.991h83.493
			c1.094,0,1.988-0.897,1.988-1.991s-0.901-1.991-1.988-1.991H782.759z"/>
	</g>
	<g>
		<g>
			<path d="M-132.859,614.317c0,0,57.809,0,57.809-57.81V36.225c0-57.809-57.809-57.809-57.809-57.809h-202.333
				c0,0-57.809,0-57.809,57.809v520.283c0,57.81,57.809,57.81,57.809,57.81H-132.859z M-335.191,2.503h202.333
				c34.056,0,33.722,26.511,33.722,48.175h-269.776C-368.913,24.315-369.181,2.503-335.191,2.503z M-368.913,74.764h269.776v399.848
				h-269.776V74.764z M-368.913,556.508v-57.809h269.776v57.809c0.334,18.802-6.892,33.856-33.722,33.723h-202.333
				C-359.948,588.958-368.579,581.13-368.913,556.508z"/>
			<path d="M-194.512,21.773h-79.025c-2.139,0-3.844,2.804-3.844,6.388v1.706c0,3.527,1.734,6.388,3.844,6.388h79.025
				c2.139,0,3.845-2.804,3.845-6.388V28.16C-190.668,24.635-192.403,21.773-194.512,21.773z"/>
			<circle cx="-234.025" cy="542.056" r="28.905"/>
		</g>
	</g>
	<g>
		<g id="Shape_17">
			<g>
				<path d="M-591.615,115.981c0-15.736-6.215-29.971-16.131-40.826c-0.165-0.215-0.202-0.469-0.38-0.686
					c-0.166-0.19-0.394-0.268-0.573-0.444c-11.274-11.796-27.162-19.256-44.855-19.256h-613.198
					c-17.693,0-33.581,7.46-44.881,19.256c-0.165,0.176-0.407,0.254-0.572,0.457c-0.179,0.204-0.215,0.47-0.381,0.687
					c-9.901,10.854-16.117,25.076-16.117,40.812V476.75c0,16.118,6.47,30.695,16.815,41.642c0.204,0.226,0.269,0.508,0.497,0.724
					c0.077,0.076,0.166,0.088,0.242,0.165c11.275,11.491,26.972,18.685,44.398,18.685h613.197c17.427,0,33.137-7.205,44.398-18.696
					c0.075-0.063,0.165-0.087,0.241-0.153c0.217-0.202,0.279-0.481,0.482-0.698c10.359-10.943,16.83-25.534,16.83-41.664V115.981
					H-591.615z M-832.87,277.3l212.416-176.126c2.083,4.525,3.316,9.519,3.316,14.807v360.77c0,4.78-0.991,9.318-2.708,13.498
					L-832.87,277.3z M-653.553,79.997c5.352,0,10.397,1.22,14.985,3.279l-321.585,266.625l-321.583-266.625
					c4.589-2.058,9.635-3.279,14.985-3.279H-653.553z M-1300.459,490.238c-1.716-4.168-2.708-8.72-2.708-13.5V115.981
					c0-5.288,1.234-10.283,3.317-14.807l212.416,176.127L-1300.459,490.238z M-1266.751,512.721c-5.897,0-11.389-1.524-16.319-3.989
					l215.261-215.173l99.458,82.464c2.364,1.972,5.287,2.962,8.198,2.962s5.835-0.99,8.199-2.962l99.458-82.464l215.262,215.173
					c-4.933,2.465-10.422,3.989-16.322,3.989H-1266.751L-1266.751,512.721z"/>
			</g>
		</g>
	</g>
	<g>
		<g>
			<g>
				<path d="M-1791.055,580.878c-9.602,0-18.31-4.515-23.906-12.363l-155.469-219.016c-14.47-20.137-29.364-40.865-40.004-66.004
					c-6.145-14.49-10.857-29.739-14.002-45.329c-3.176-15.756-4.786-31.669-4.786-47.301c0-63.597,24.777-123.406,69.774-168.413
					c22.191-22.203,48.224-39.568,77.372-51.661c57.991-24.009,124.049-24.019,182.01,0c29.167,12.071,55.2,29.447,77.382,51.661
					c44.997,44.997,69.783,104.806,69.783,168.413c0,15.611-1.599,31.524-4.775,47.301c-3.197,15.653-7.91,30.901-14.014,45.339
					c-10.618,25.099-25.493,45.807-39.89,65.84c-1.639,2.263-3.104,4.286-6.923,9.675l-148.67,209.476
					C-1772.776,576.363-1781.475,580.878-1791.055,580.878z M-1791.055-26.552c-28.669,0-56.623,5.553-83.081,16.525
					c-26.614,11.023-50.383,26.905-70.645,47.155c-41.063,41.084-63.681,95.682-63.681,153.736c0,14.262,1.474,28.794,4.379,43.201
					c2.865,14.22,7.162,28.129,12.767,41.333c9.737,23.012,23.313,41.903,37.679,61.905l6.923,9.705l148.672,209.465
					c3.404,4.806,10.494,4.848,13.95-0.01l148.659-209.478c3.883-5.469,5.388-7.546,6.893-9.632
					c14.459-20.116,28.015-38.996,37.73-61.957c5.563-13.163,9.861-27.092,12.777-41.375c2.886-14.397,4.359-28.929,4.359-43.17
					c0-58.065-22.626-112.653-63.701-153.726c-20.25-20.261-44.01-36.131-70.656-47.155
					C-1734.474-20.999-1762.406-26.552-1791.055-26.552z M-1791.055,334.107c-79.001,0-143.273-64.263-143.273-143.254
					c0-78.991,64.272-143.242,143.273-143.242c78.97,0,143.231,64.261,143.231,143.252
					C-1647.824,269.855-1712.074,334.107-1791.055,334.107z M-1791.055,68.371c-67.552,0-122.514,54.951-122.514,122.493
					c0,67.542,54.962,122.493,122.514,122.493c67.531,0,122.472-54.952,122.472-122.493
					C-1668.584,123.322-1723.525,68.371-1791.055,68.371z"/>
			</g>
		</g>
	</g>
</g>
<g id="Capa_2">
	<g>
		<path fill="none" stroke="#362744" stroke-width="11" stroke-miterlimit="10" d="M-1783.224-37.084c-331,0-273.49,344.49-9.98,608
			C-1536.214,313.926-1452.224-37.084-1783.224-37.084z M-1788.914,339.066c-72.99,0-132.15-59.17-132.15-132.15
			s59.16-132.15,132.15-132.15c72.98,0,132.14,59.17,132.14,132.15S-1715.934,339.066-1788.914,339.066z"/>
		<path fill="none" stroke="#362744" stroke-width="11" stroke-miterlimit="10" d="M-1656.774,206.916
			c0,72.98-59.16,132.15-132.14,132.15c-72.99,0-132.15-59.17-132.15-132.15s59.16-132.15,132.15-132.15
			C-1715.934,74.766-1656.774,133.936-1656.774,206.916z"/>
		<path fill="none" stroke="#362744" stroke-width="11" stroke-miterlimit="10" d="M-1656.774,206.916
			c0,72.98-59.16,132.15-132.14,132.15c-72.99,0-132.15-59.17-132.15-132.15s59.16-132.15,132.15-132.15
			C-1715.934,74.766-1656.774,133.936-1656.774,206.916z"/>
	</g>
	<g>
		<g>
			<path fill="#362744" d="M-625.177,77.741c10.863,0,19.669,8.806,19.669,19.669v397.913c0,10.862-8.807,19.669-19.669,19.669
				h-669.951c-10.863,0-19.669-8.807-19.669-19.669V97.41c0-10.863,8.806-19.669,19.669-19.669H-625.177 M-625.177,66.741h-669.951
				c-16.911,0-30.669,13.758-30.669,30.669v397.913c0,16.911,13.758,30.669,30.669,30.669h669.951
				c16.911,0,30.669-13.758,30.669-30.669V97.41C-594.507,80.499-608.265,66.741-625.177,66.741L-625.177,66.741z"/>
		</g>
		
			<polyline fill="none" stroke="#362744" stroke-width="11" stroke-linecap="round" stroke-linejoin="round" stroke-miterlimit="10" points="
			-1305.084,80.456 -1068.354,274.566 -961.584,362.126 		"/>
		
			<polyline fill="none" stroke="#362744" stroke-width="11" stroke-linecap="round" stroke-linejoin="round" stroke-miterlimit="10" points="
			-616.964,79.536 -616.974,79.536 -853.124,273.186 -961.584,362.126 		"/>
		
			<line fill="none" stroke="#362744" stroke-width="11" stroke-linecap="round" stroke-linejoin="round" stroke-miterlimit="10" x1="-1068.354" y1="274.566" x2="-1305.694" y2="511.906"/>
		
			<line fill="none" stroke="#362744" stroke-width="11" stroke-linecap="round" stroke-linejoin="round" stroke-miterlimit="10" x1="-614.484" y1="511.826" x2="-853.124" y2="273.186"/>
	</g>
	<g>
		<path fill="none" stroke="#362744" stroke-width="11" stroke-linecap="round" stroke-linejoin="round" stroke-miterlimit="10" d="
			M-376.69,21.945c0-15.281,12.388-27.669,27.669-27.669h229.991c15.281,0,27.669,12.388,27.669,27.669v548.844
			c0,15.281-12.388,27.669-27.669,27.669H-349.02c-15.281,0-27.669-12.388-27.669-27.669V21.945z"/>
		
			<line fill="none" stroke="#362744" stroke-width="11" stroke-linecap="round" stroke-linejoin="round" stroke-miterlimit="10" x1="-91.364" y1="63.516" x2="-376.694" y2="63.516"/>
		
			<line fill="none" stroke="#362744" stroke-width="11" stroke-linecap="round" stroke-linejoin="round" stroke-miterlimit="10" x1="-91.364" y1="483.496" x2="-376.694" y2="483.496"/>
		
			<line fill="none" stroke="#362744" stroke-width="11" stroke-linecap="round" stroke-linejoin="round" stroke-miterlimit="10" x1="-269.466" y1="29.013" x2="-194.512" y2="29.013"/>
		
			<circle fill="none" stroke="#362744" stroke-width="11" stroke-linecap="round" stroke-linejoin="round" stroke-miterlimit="10" cx="-234.025" cy="542.056" r="27.064"/>
	</g>
	<g>
		<path fill="none" stroke="#362744" stroke-width="11" stroke-miterlimit="10" d="M353.435,583.197
			C144.514,609.49,0,413,37.641,239.464C-36.977,80.456,135.514-38.477,263.008,36.254
			C484.997-5.725,639.489,212.01,584.388,371.013C643.989,483.496,525.495,649.988,353.435,583.197z"/>
		<g>
			
				<path fill="none" stroke="#362744" stroke-width="11" stroke-linecap="round" stroke-linejoin="round" stroke-miterlimit="10" d="
				M372.219,272.826c78.001,17.68,97.761,63.961,97.761,107.641c0,67.601-50.96,118.041-153.921,118.041
				c-108.161,0-156.521-54.08-156.521-94.641c0-20.8,15.08-35.36,35.88-35.36c46.281,0,34.32,67.601,120.642,67.601
				c44.2,0,68.641-24.44,68.641-49.4c0-15.08-7.28-31.72-36.4-39l-96.201-24.44c-77.48-19.76-91.521-62.4-91.521-102.441
				c0-83.201,76.96-114.401,149.241-114.401c66.561,0,145.081,37.44,145.081,87.361c0,21.32-18.2,33.8-39,33.8
				c-39.521,0-32.24-55.641-111.801-55.641c-39.521,0-61.36,18.2-61.36,44.2c0,26,31.2,34.32,58.24,40.561L372.219,272.826z"/>
		</g>
	</g>
</g>
</svg>
